Muli-Regular.ufo
<glyph name="exclam" format="1">
  <advance width="582"/>
  <unicode hex="0021"/>
  <outline>
    <contour>
      <point x="249" y="377" type="line"/>
      <point x="194" y="1456" type="line"/>
      <point x="412" y="1456" type="line"/>
      <point x="357" y="377" type="line"/>
    </contour>
    <contour>
      <point x="211" y="0" type="line"/>
      <point x="211" y="220" type="line"/>
      <point x="397" y="220" type="line"/>
      <point x="397" y="0" type="line"/>
    </contour>
  </outline>
</glyph>
<glyph name="numbersign" format="1">
  <advance width="1300"/>
  <unicode hex="0023"/>
  <outline>
    <contour>
      <point x="497" y="608" type="line"/>
      <point x="752" y="608" type="line"/>
      <point x="806" y="890" type="line"/>
      <point x="554" y="890" type="line"/>
    </contour>
    <contour>
      <point x="241" y="42" type="line"/>
      <point x="327" y="483" type="line"/>
      <point x="78" y="483" type="line"/>
      <point x="88" y="608" type="line"/>
      <point x="351" y="608" type="line"/>
      <point x="404" y="890" type="line"/>
      <point x="142" y="890" type="line"/>
      <point x="153" y="1015" type="line"/>
      <point x="428" y="1015" type="line"/>
      <point x="508" y="1431" type="line"/>
      <point x="658" y="1431" type="line"/>
      <point x="578" y="1015" type="line"/>
      <point x="831" y="1015" type="line"/>
      <point x="910" y="1431" type="line"/>
      <point x="1058" y="1431" type="line"/>
      <point x="977" y="1015" type="line"/>
      <point x="1214" y="1015" type="line"/>
      <point x="1204" y="890" type="line"/>
      <point x="954" y="890" type="line"/>
      <point x="900" y="608" type="line"/>
      <point x="1152" y="608" type="line"/>
      <point x="1141" y="483" type="line"/>
      <point x="876" y="483" type="line"/>
      <point x="790" y="42" type="line"/>
      <point x="643" y="42" type="line"/>
      <point x="727" y="483" type="line"/>
      <point x="475" y="483" type="line"/>
      <point x="388" y="42" type="line"/>
    </contour>
  </outline>
</glyph>
<glyph name="dollar" format="1">
  <advance width="1197"/>
  <unicode hex="0024"/>
  <outline>
    <contour>
      <point x="590" y="-203" type="line"/>
      <point x="675" y="-203" type="line"/>
      <point x="675" y="-19.2506" type="line"/>
      <point x="915.304" y="0.8797"/>
      <point x="1101.01" y="131.707"/>
      <point x="1101.01" y="383.685" type="curve" smooth="yes"/>
      <point x="1101.01" y="614.572"/>
      <point x="1007.53" y="726.966"/>
      <point x="675" y="826.908" type="curve"/>
      <point x="675" y="1319.91" type="line"/>
      <point x="810.977" y="1311.39"/>
      <point x="915.659" y="1254.5"/>
      <point x="971" y="1201" type="curve"/>
      <point x="1066" y="1330" type="line"/>
      <point x="1007.72" y="1387.35"/>
      <point x="903.246" y="1468.66"/>
      <point x="675" y="1480.53" type="curve"/>
      <point x="675" y="1628" type="line"/>
      <point x="590" y="1628" type="line"/>
      <point x="590" y="1481.57" type="line"/>
      <point x="328.499" y="1473.22"/>
      <point x="134" y="1342.65"/>
      <point x="134" y="1098" type="curve" smooth="yes"/>
      <point x="134" y="857"/>
      <point x="271" y="757"/>
      <point x="534" y="681" type="curve" smooth="yes"/>
      <point x="546.612" y="676.796"/>
      <point x="569.682" y="670.428"/>
      <point x="590" y="664.712" type="curve"/>
      <point x="590" y="139.102" type="line"/>
      <point x="423.095" y="142.502"/>
      <point x="275.769" y="229.996"/>
      <point x="214" y="280" type="curve"/>
      <point x="129" y="142" type="line"/>
      <point x="185.57" y="87.3811"/>
      <point x="354.391" y="-16.7046"/>
      <point x="590" y="-21.8053" type="curve"/>
    </contour>
    <contour>
      <point x="675" y="143.939" type="curve"/>
      <point x="675" y="637.81" type="line"/>
      <point x="861.491" y="572.463"/>
      <point x="902.063" y="511.885"/>
      <point x="902.063" y="389.502" type="curve" smooth="yes"/>
      <point x="902.063" y="251.712"/>
      <point x="826.882" y="165.261"/>
    </contour>
    <contour>
      <point x="590" y="851.024" type="line"/>
      <point x="383.667" y="909.9"/>
      <point x="337" y="966.068"/>
      <point x="337" y="1104" type="curve" smooth="yes"/>
      <point x="337" y="1236.67"/>
      <point x="440.447" y="1306.62"/>
      <point x="590" y="1319" type="curve"/>
    </contour>
  </outline>
</glyph>
<glyph name="asterisk" format="1">
  <advance width="1112"/>
  <unicode hex="002A"/>
  <outline>
    <contour>
      <point x="718" y="711" type="line"/>
      <point x="556" y="974" type="line"/>
      <point x="397" y="716" type="line"/>
      <point x="259" y="806" type="line"/>
      <point x="453" y="1044" type="line"/>
      <point x="183" y="1133" type="line"/>
      <point x="238" y="1275" type="line"/>
      <point x="491" y="1155" type="line"/>
      <point x="461" y="1457" type="line"/>
      <point x="631" y="1457" type="line"/>
      <point x="616" y="1155" type="line"/>
      <point x="851" y="1275" type="line"/>
      <point x="919" y="1133" type="line"/>
      <point x="656" y="1044" type="line"/>
      <point x="858" y="798" type="line"/>
    </contour>
  </outline>
</glyph>
<glyph name="slash" format="1">
  <advance width="910"/>
  <unicode hex="002F"/>
  <outline>
    <contour>
      <point x="125" y="0" type="line"/>
      <point x="655" y="1456" type="line"/>
      <point x="826" y="1456" type="line"/>
      <point x="292" y="0" type="line"/>
    </contour>
  </outline>
</glyph>
<glyph name="four" format="1">
  <advance width="1231"/>
  <unicode hex="0034"/>
  <outline>
    <contour>
      <point x="305" y="527" type="curve"/>
      <point x="751" y="527" type="line"/>
      <point x="751" y="1272" type="line"/>
      <point x="606.609" y="1019.39"/>
      <point x="454.318" y="774.682"/>
    </contour>
    <contour>
      <point x="752" y="0" type="line"/>
      <point x="752" y="385" type="line"/>
      <point x="105" y="385" type="line"/>
      <point x="105" y="513" type="line"/>
      <point x="702" y="1456" type="line"/>
      <point x="936" y="1456" type="line"/>
      <point x="936" y="527" type="line"/>
      <point x="1153" y="527" type="line"/>
      <point x="1153" y="385" type="line"/>
      <point x="935" y="385" type="line"/>
      <point x="935" y="0" type="line"/>
    </contour>
  </outline>
</glyph>
<glyph name="five" format="1">
  <advance width="1231"/>
  <unicode hex="0035"/>
  <outline>
    <contour>
      <point x="603" y="-23" type="curve" smooth="yes"/>
      <point x="445" y="-23"/>
      <point x="283" y="29"/>
      <point x="162" y="147" type="curve"/>
      <point x="253" y="289" type="line"/>
      <point x="355" y="183"/>
      <point x="484" y="139"/>
      <point x="601" y="139" type="curve" smooth="yes"/>
      <point x="787" y="139"/>
      <point x="911" y="266"/>
      <point x="911" y="469" type="curve" smooth="yes"/>
      <point x="911" y="636"/>
      <point x="815" y="773"/>
      <point x="645" y="773" type="curve" smooth="yes"/>
      <point x="555" y="773"/>
      <point x="459" y="738"/>
      <point x="417" y="673" type="curve"/>
      <point x="237" y="690" type="line"/>
      <point x="241" y="1456" type="line"/>
      <point x="1022" y="1456" type="line"/>
      <point x="1022" y="1293" type="line"/>
      <point x="416" y="1293" type="line"/>
      <point x="400" y="839" type="line"/>
      <point x="461" y="908"/>
      <point x="565" y="940"/>
      <point x="667" y="940" type="curve" smooth="yes"/>
      <point x="928" y="940"/>
      <point x="1107" y="738"/>
      <point x="1107" y="465" type="curve" smooth="yes"/>
      <point x="1107" y="161"/>
      <point x="888" y="-23"/>
    </contour>
  </outline>
</glyph>
<glyph name="seven" format="1">
  <advance width="1231"/>
  <unicode hex="0037"/>
  <outline>
    <contour>
      <point x="354" y="0" type="line"/>
      <point x="876" y="1295" type="line"/>
      <point x="171" y="1295" type="line"/>
      <point x="171" y="1456" type="line"/>
      <point x="1092" y="1456" type="line"/>
      <point x="1092" y="1312" type="line"/>
      <point x="560" y="0" type="line"/>
    </contour>
  </outline>
</glyph>
<glyph name="eight" format="1">
  <advance width="1232"/>
  <unicode hex="0038"/>
  <outline>
    <contour>
      <point x="619" y="843" type="curve"/>
      <point x="784" y="879"/>
      <point x="883" y="975"/>
      <point x="883" y="1115" type="curve" smooth="yes"/>
      <point x="883" y="1256"/>
      <point x="760" y="1333"/>
      <point x="620" y="1333" type="curve" smooth="yes"/>
      <point x="478" y="1333"/>
      <point x="356" y="1258"/>
      <point x="356" y="1113" type="curve" smooth="yes"/>
      <point x="356" y="975"/>
      <point x="455" y="878"/>
    </contour>
    <contour>
      <point x="619" y="131" type="curve" smooth="yes"/>
      <point x="790" y="131"/>
      <point x="912" y="217"/>
      <point x="912" y="384" type="curve" smooth="yes"/>
      <point x="912" y="535"/>
      <point x="788" y="646"/>
      <point x="621" y="682" type="curve"/>
      <point x="453" y="646"/>
      <point x="328" y="539"/>
      <point x="328" y="382" type="curve" smooth="yes"/>
      <point x="328" y="219"/>
      <point x="450" y="131"/>
    </contour>
    <contour>
      <point x="620" y="-22" type="curve" smooth="yes"/>
      <point x="363" y="-22"/>
      <point x="139" y="122"/>
      <point x="139" y="380" type="curve" smooth="yes"/>
      <point x="139" y="560"/>
      <point x="251" y="697"/>
      <point x="437" y="763" type="curve"/>
      <point x="279" y="824"/>
      <point x="172" y="942"/>
      <point x="172" y="1110" type="curve" smooth="yes"/>
      <point x="172" y="1344"/>
      <point x="368" y="1482"/>
      <point x="619" y="1482" type="curve" smooth="yes"/>
      <point x="875" y="1482"/>
      <point x="1068" y="1343"/>
      <point x="1068" y="1107" type="curve" smooth="yes"/>
      <point x="1068" y="939"/>
      <point x="964" y="821"/>
      <point x="804" y="763" type="curve"/>
      <point x="986" y="698"/>
      <point x="1100" y="556"/>
      <point x="1100" y="377" type="curve" smooth="yes"/>
      <point x="1100" y="120"/>
      <point x="873" y="-22"/>
    </contour>
  </outline>
</glyph>
<glyph name="nine" format="1">
  <advance width="1232"/>
  <unicode hex="0039"/>
  <outline>
    <contour>
      <point x="597" y="692" type="curve" smooth="yes"/>
      <point x="779" y="692"/>
      <point x="900" y="813"/>
      <point x="900" y="984" type="curve" smooth="yes"/>
      <point x="900" y="1156"/>
      <point x="810" y="1321"/>
      <point x="609" y="1321" type="curve" smooth="yes"/>
      <point x="429" y="1321"/>
      <point x="325" y="1186"/>
      <point x="325" y="1004" type="curve" smooth="yes"/>
      <point x="325" y="829"/>
      <point x="405" y="692"/>
    </contour>
    <contour>
      <point x="559" y="-22" type="curve" smooth="yes"/>
      <point x="441" y="-22"/>
      <point x="325" y="9"/>
      <point x="207" y="71" type="curve"/>
      <point x="273" y="223" type="line"/>
      <point x="360" y="169"/>
      <point x="452" y="139"/>
      <point x="546" y="139" type="curve" smooth="yes"/>
      <point x="781" y="139"/>
      <point x="908" y="346"/>
      <point x="909" y="651" type="curve" smooth="yes"/>
      <point x="910" y="656"/>
      <point x="910" y="698"/>
      <point x="910" y="701" type="curve"/>
      <point x="849" y="595"/>
      <point x="729" y="534"/>
      <point x="577" y="534" type="curve" smooth="yes"/>
      <point x="306" y="534"/>
      <point x="131" y="723"/>
      <point x="131" y="1000" type="curve" smooth="yes"/>
      <point x="131" y="1273"/>
      <point x="312" y="1482"/>
      <point x="608" y="1482" type="curve" smooth="yes"/>
      <point x="936" y="1482"/>
      <point x="1100" y="1227"/>
      <point x="1100" y="772" type="curve" smooth="yes"/>
      <point x="1100" y="270"/>
      <point x="897" y="-22"/>
    </contour>
  </outline>
</glyph>
<glyph name="greater" format="1">
  <advance width="1256"/>
  <unicode hex="003E"/>
  <outline>
    <contour>
      <point x="215" y="68" type="line"/>
      <point x="215" y="242" type="line"/>
      <point x="914" y="560" type="line"/>
      <point x="220" y="903" type="line"/>
      <point x="220" y="1075" type="line"/>
      <point x="1153" y="602" type="line"/>
      <point x="1153" y="504" type="line"/>
    </contour>
  </outline>
</glyph>
<glyph name="question" format="1">
  <advance width="1058"/>
  <unicode hex="003F"/>
  <outline>
    <contour>
      <point x="343" y="-4" type="line"/>
      <point x="343" y="217" type="line"/>
      <point x="530" y="217" type="line"/>
      <point x="530" y="-4" type="line"/>
    </contour>
    <contour>
      <point x="361" y="379" type="line"/>
      <point x="361" y="521" type="line" smooth="yes"/>
      <point x="361" y="770"/>
      <point x="737" y="894"/>
      <point x="737" y="1123" type="curve" smooth="yes"/>
      <point x="737" y="1264"/>
      <point x="625" y="1319"/>
      <point x="487" y="1319" type="curve" smooth="yes"/>
      <point x="365" y="1319"/>
      <point x="246" y="1271"/>
      <point x="198" y="1245" type="curve"/>
      <point x="198" y="1411" type="line"/>
      <point x="273" y="1448"/>
      <point x="397" y="1479"/>
      <point x="508" y="1479" type="curve" smooth="yes"/>
      <point x="749" y="1479"/>
      <point x="928" y="1365"/>
      <point x="928" y="1130" type="curve" smooth="yes"/>
      <point x="928" y="831"/>
      <point x="510" y="718"/>
      <point x="510" y="478" type="curve" smooth="yes"/>
      <point x="510" y="379" type="line"/>
    </contour>
  </outline>
</glyph>
<glyph name="B" format="1">
  <advance width="1356"/>
  <unicode hex="0042"/>
  <outline>
    <contour>
      <point x="647" y="1456" type="move" name="top"/>
    </contour>
    <contour>
      <point x="393" y="840" type="line"/>
      <point x="646" y="840" type="line" smooth="yes"/>
      <point x="828" y="840"/>
      <point x="968" y="897"/>
      <point x="968" y="1078" type="curve" smooth="yes"/>
      <point x="968" y="1252"/>
      <point x="834" y="1295"/>
      <point x="614" y="1295" type="curve" smooth="yes"/>
      <point x="393" y="1295" type="line"/>
    </contour>
    <contour>
      <point x="394" y="163" type="line"/>
      <point x="688" y="163" type="line" smooth="yes"/>
      <point x="914" y="163"/>
      <point x="1036" y="254"/>
      <point x="1036" y="419" type="curve" smooth="yes"/>
      <point x="1036" y="615"/>
      <point x="930" y="682"/>
      <point x="662" y="682" type="curve" smooth="yes"/>
      <point x="394" y="682" type="line"/>
    </contour>
    <contour>
      <point x="202" y="0" type="line"/>
      <point x="202" y="1456" type="line"/>
      <point x="587" y="1456" type="line" smooth="yes"/>
      <point x="866" y="1456"/>
      <point x="1169" y="1410"/>
      <point x="1169" y="1101" type="curve" smooth="yes"/>
      <point x="1169" y="944"/>
      <point x="1092" y="822"/>
      <point x="929" y="777" type="curve"/>
      <point x="1126" y="743"/>
      <point x="1239" y="608"/>
      <point x="1239" y="414" type="curve" smooth="yes"/>
      <point x="1239" y="186"/>
      <point x="1067" y="0"/>
      <point x="719" y="0" type="curve" smooth="yes"/>
    </contour>
  </outline>
</glyph>
<glyph name="D" format="1">
  <advance width="1539"/>
  <unicode hex="0044"/>
  <outline>
    <contour>
      <point x="697" y="1456" type="move" name="top"/>
    </contour>
    <contour>
      <point x="202" y="0" type="line"/>
      <point x="202" y="1456" type="line"/>
      <point x="560" y="1456" type="line" smooth="yes"/>
      <point x="1108" y="1456"/>
      <point x="1428" y="1233"/>
      <point x="1428" y="726" type="curve" smooth="yes"/>
      <point x="1428" y="264"/>
      <point x="1146" y="0"/>
      <point x="625" y="0" type="curve" smooth="yes"/>
    </contour>
    <contour>
      <point x="393" y="161" type="line"/>
      <point x="635" y="161" type="line" smooth="yes"/>
      <point x="1031" y="161"/>
      <point x="1226" y="372"/>
      <point x="1226" y="726" type="curve" smooth="yes"/>
      <point x="1226" y="1115"/>
      <point x="1015" y="1295"/>
      <point x="578" y="1295" type="curve" smooth="yes"/>
      <point x="393" y="1295" type="line"/>
    </contour>
  </outline>
</glyph>
<glyph name="E" format="1">
  <advance width="1204"/>
  <unicode hex="0045"/>
  <outline>
    <contour>
      <point x="645" y="1456" type="move" name="top"/>
    </contour>
    <contour>
      <point x="202" y="0" type="line"/>
      <point x="202" y="1456" type="line"/>
      <point x="1074" y="1456" type="line"/>
      <point x="1074" y="1295" type="line"/>
      <point x="393" y="1295" type="line"/>
      <point x="393" y="837" type="line"/>
      <point x="1036" y="837" type="line"/>
      <point x="1036" y="675" type="line"/>
      <point x="393" y="675" type="line"/>
      <point x="393" y="161" type="line"/>
      <point x="1103" y="161" type="line"/>
      <point x="1103" y="0" type="line"/>
    </contour>
  </outline>
</glyph>
<glyph name="F" format="1">
  <advance width="1117"/>
  <unicode hex="0046"/>
  <outline>
    <contour>
      <point x="639" y="1456" type="move" name="top"/>
    </contour>
    <contour>
      <point x="202" y="0" type="line"/>
      <point x="202" y="1456" type="line"/>
      <point x="1042" y="1456" type="line"/>
      <point x="1042" y="1295" type="line"/>
      <point x="393" y="1295" type="line"/>
      <point x="393" y="837" type="line"/>
      <point x="997" y="837" type="line"/>
      <point x="997" y="675" type="line"/>
      <point x="393" y="675" type="line"/>
      <point x="393" y="0" type="line"/>
    </contour>
  </outline>
</glyph>
<glyph name="G" format="1">
  <advance width="1527"/>
  <unicode hex="0047"/>
  <outline>
    <contour>
      <point x="833" y="1456" type="move" name="top"/>
    </contour>
    <contour>
      <point x="844" y="-22" type="curve" smooth="yes"/>
      <point x="367" y="-22"/>
      <point x="108" y="266"/>
      <point x="108" y="704" type="curve" smooth="yes"/>
      <point x="108" y="1156"/>
      <point x="414" y="1482"/>
      <point x="861" y="1482" type="curve" smooth="yes"/>
      <point x="1054" y="1482"/>
      <point x="1210" y="1433"/>
      <point x="1340" y="1336" type="curve"/>
      <point x="1263" y="1203" type="line"/>
      <point x="1146" y="1283"/>
      <point x="1017" y="1321"/>
      <point x="865" y="1321" type="curve" smooth="yes"/>
      <point x="526" y="1321"/>
      <point x="306" y="1062"/>
      <point x="306" y="712" type="curve" smooth="yes"/>
      <point x="306" y="373"/>
      <point x="488" y="139"/>
      <point x="852" y="139" type="curve" smooth="yes"/>
      <point x="957" y="139"/>
      <point x="1078" y="156"/>
      <point x="1170" y="191" type="curve"/>
      <point x="1170" y="603" type="line"/>
      <point x="802" y="603" type="line"/>
      <point x="802" y="766" type="line"/>
      <point x="1360" y="766" type="line"/>
      <point x="1360" y="84" type="line"/>
      <point x="1194" y="8"/>
      <point x="1014" y="-22"/>
    </contour>
  </outline>
</glyph>
<glyph name="J" format="1">
  <advance width="786"/>
  <unicode hex="004A"/>
  <outline>
    <contour>
      <point x="488" y="1456" type="move" name="top"/>
    </contour>
    <contour>
      <point x="229" y="-326" type="curve" smooth="yes"/>
      <point x="143" y="-326"/>
      <point x="56" y="-305"/>
      <point x="-7" y="-284" type="curve"/>
      <point x="20" y="-134" type="line"/>
      <point x="71" y="-149"/>
      <point x="138" y="-165"/>
      <point x="204" y="-165" type="curve" smooth="yes"/>
      <point x="357" y="-165"/>
      <point x="397" y="-78"/>
      <point x="397" y="120" type="curve" smooth="yes"/>
      <point x="397" y="1456" type="line"/>
      <point x="588" y="1456" type="line"/>
      <point x="588" y="121" type="line" smooth="yes"/>
      <point x="588" y="-193"/>
      <point x="463" y="-326"/>
    </contour>
  </outline>
</glyph>
<glyph name="K" format="1">
  <advance width="1296"/>
  <unicode hex="004B"/>
  <outline>
    <contour>
      <point x="671" y="1456" type="move" name="top"/>
    </contour>
    <contour>
      <point x="202" y="0" type="line"/>
      <point x="202" y="1456" type="line"/>
      <point x="393" y="1456" type="line"/>
      <point x="393" y="800" type="line"/>
      <point x="1020" y="1456" type="line"/>
      <point x="1257" y="1456" type="line"/>
      <point x="584" y="755" type="line"/>
      <point x="1305" y="0" type="line"/>
      <point x="1063" y="0" type="line"/>
      <point x="393" y="692" type="line"/>
      <point x="393" y="0" type="line"/>
    </contour>
  </outline>
</glyph>
<glyph name="M" format="1">
  <advance width="1923"/>
  <unicode hex="004D"/>
  <outline>
    <contour>
      <point x="968" y="1456" type="move" name="top"/>
    </contour>
    <contour>
      <point x="202" y="0" type="line"/>
      <point x="202" y="1456" type="line"/>
      <point x="434" y="1456" type="line"/>
      <point x="609.823" y="1052.82"/>
      <point x="788.791" y="652.791"/>
      <point x="962" y="247" type="curve"/>
      <point x="1135.84" y="653.491"/>
      <point x="1316.89" y="1052.78"/>
      <point x="1494" y="1456" type="curve"/>
      <point x="1721" y="1456" type="line"/>
      <point x="1721" y="0" type="line"/>
      <point x="1539" y="0" type="line"/>
      <point x="1539" y="1145" type="line"/>
      <point x="1372.28" y="760.392"/>
      <point x="1199.34" y="381.998"/>
      <point x="1030" y="0" type="curve"/>
      <point x="893" y="0" type="line"/>
      <point x="461" y="973" type="line"/>
      <point x="386" y="1153" type="line"/>
      <point x="386" y="0" type="line"/>
    </contour>
  </outline>
</glyph>
<glyph name="O" format="1">
  <advance width="1626"/>
  <unicode hex="004F"/>
  <outline>
    <contour>
      <point x="817" y="1456" type="move" name="top"/>
    </contour>
    <contour>
      <point x="816" y="-22" type="curve" smooth="yes"/>
      <point x="373" y="-22"/>
      <point x="107" y="272"/>
      <point x="107" y="729" type="curve" smooth="yes"/>
      <point x="107" y="1175"/>
      <point x="371" y="1482"/>
      <point x="818" y="1482" type="curve" smooth="yes"/>
      <point x="1250" y="1482"/>
      <point x="1520" y="1176"/>
      <point x="1520" y="729" type="curve" smooth="yes"/>
      <point x="1520" y="273"/>
      <point x="1256" y="-22"/>
    </contour>
    <contour>
      <point x="814" y="139" type="curve" smooth="yes"/>
      <point x="1146" y="139"/>
      <point x="1312" y="372"/>
      <point x="1312" y="729" type="curve" smooth="yes"/>
      <point x="1312" y="1076"/>
      <point x="1147" y="1321"/>
      <point x="816" y="1321" type="curve" smooth="yes"/>
      <point x="488" y="1321"/>
      <point x="311" y="1075"/>
      <point x="311" y="729" type="curve" smooth="yes"/>
      <point x="311" y="371"/>
      <point x="484" y="139"/>
    </contour>
  </outline>
</glyph>
<glyph name="P" format="1">
  <advance width="1260"/>
  <unicode hex="0050"/>
  <outline>
    <contour>
      <point x="647" y="1456" type="move" name="top"/>
    </contour>
    <contour>
      <point x="393" y="821" type="line"/>
      <point x="658" y="821" type="line" smooth="yes"/>
      <point x="877" y="821"/>
      <point x="997" y="873"/>
      <point x="997" y="1056" type="curve" smooth="yes"/>
      <point x="997" y="1254.97"/>
      <point x="871.426" y="1295.07"/>
      <point x="642.547" y="1295.07" type="curve" smooth="yes"/>
      <point x="636.764" y="1295.07"/>
      <point x="630.915" y="1295.05"/>
      <point x="625" y="1295" type="curve" smooth="yes"/>
      <point x="393" y="1295" type="line"/>
    </contour>
    <contour>
      <point x="202" y="0" type="line"/>
      <point x="202" y="1456" type="line"/>
      <point x="621" y="1456" type="line" smooth="yes"/>
      <point x="963" y="1456"/>
      <point x="1192" y="1392"/>
      <point x="1192" y="1057" type="curve" smooth="yes"/>
      <point x="1192" y="758"/>
      <point x="991" y="660"/>
      <point x="661" y="660" type="curve" smooth="yes"/>
      <point x="393" y="660" type="line"/>
      <point x="393" y="0" type="line"/>
    </contour>
  </outline>
</glyph>
<glyph name="R" format="1">
  <advance width="1362"/>
  <unicode hex="0052"/>
  <outline>
    <contour>
      <point x="652" y="1456" type="move" name="top"/>
    </contour>
    <contour>
      <point x="392" y="808" type="line"/>
      <point x="663" y="808" type="line" smooth="yes"/>
      <point x="842" y="808"/>
      <point x="968" y="868"/>
      <point x="968" y="1058" type="curve" smooth="yes"/>
      <point x="968" y="1242.5"/>
      <point x="876.5" y="1295.06"/>
      <point x="683.102" y="1295.06" type="curve" smooth="yes"/>
      <point x="679.438" y="1295.06"/>
      <point x="675.737" y="1295.04"/>
      <point x="672" y="1295" type="curve" smooth="yes"/>
      <point x="392" y="1295" type="line"/>
    </contour>
    <contour>
      <point x="202" y="0" type="line"/>
      <point x="202" y="1456" type="line"/>
      <point x="668" y="1456" type="line" smooth="yes"/>
      <point x="950" y="1456"/>
      <point x="1168" y="1386"/>
      <point x="1168" y="1069" type="curve" smooth="yes"/>
      <point x="1168" y="894"/>
      <point x="1083" y="759"/>
      <point x="885" y="718" type="curve"/>
      <point x="1004" y="680"/>
      <point x="1054" y="584"/>
      <point x="1111" y="440" type="curve" smooth="yes"/>
      <point x="1282" y="0" type="line"/>
      <point x="1078" y="0" type="line"/>
      <point x="918" y="428" type="line" smooth="yes"/>
      <point x="854" y="599"/>
      <point x="815" y="647"/>
      <point x="654" y="647" type="curve" smooth="yes"/>
      <point x="393" y="647" type="line"/>
      <point x="393" y="0" type="line"/>
    </contour>
  </outline>
</glyph>
<glyph name="T" format="1">
  <advance width="1145"/>
  <unicode hex="0054"/>
  <outline>
    <contour>
      <point x="571" y="1456" type="move" name="top"/>
    </contour>
    <contour>
      <point x="475" y="0" type="line"/>
      <point x="475" y="1295" type="line"/>
      <point x="10" y="1295" type="line"/>
      <point x="10" y="1456" type="line"/>
      <point x="1134" y="1456" type="line"/>
      <point x="1134" y="1295" type="line"/>
      <point x="666" y="1295" type="line"/>
      <point x="666" y="0" type="line"/>
    </contour>
  </outline>
</glyph>
<glyph name="X" format="1">
  <advance width="1302"/>
  <unicode hex="0058"/>
  <outline>
    <contour>
      <point x="35" y="0" type="line"/>
      <point x="545" y="740" type="line"/>
      <point x="57" y="1456" type="line"/>
      <point x="288" y="1456" type="line"/>
      <point x="662" y="896" type="line"/>
      <point x="1037" y="1456" type="line"/>
      <point x="1254" y="1456" type="line"/>
      <point x="770" y="747" type="line"/>
      <point x="1272" y="0" type="line"/>
      <point x="1045" y="0" type="line"/>
      <point x="655" y="589" type="line"/>
      <point x="256" y="0" type="line"/>
    </contour>
  </outline>
</glyph>
<glyph name="Y" format="1">
  <advance width="1239"/>
  <unicode hex="0059"/>
  <outline>
    <contour>
      <point x="640" y="1456" type="move" name="top"/>
    </contour>
    <contour>
      <point x="522" y="0" type="line"/>
      <point x="522" y="575" type="line"/>
      <point x="21" y="1456" type="line"/>
      <point x="233" y="1456" type="line"/>
      <point x="622" y="743" type="line"/>
      <point x="1013" y="1456" type="line"/>
      <point x="1226" y="1456" type="line"/>
      <point x="714" y="578" type="line"/>
      <point x="714" y="0" type="line"/>
    </contour>
  </outline>
</glyph>
<glyph name="bracketleft" format="1">
  <advance width="660"/>
  <unicode hex="005B"/>
  <outline>
    <contour>
      <point x="172" y="-227" type="line"/>
      <point x="172" y="1470" type="line"/>
      <point x="582" y="1470" type="line"/>
      <point x="582" y="1331" type="line"/>
      <point x="353" y="1331" type="line"/>
      <point x="353" y="-88" type="line"/>
      <point x="583" y="-88" type="line"/>
      <point x="583" y="-227" type="line"/>
    </contour>
  </outline>
</glyph>
<glyph name="bracketright" format="1">
  <advance width="660"/>
  <unicode hex="005D"/>
  <outline>
    <contour>
      <point x="124" y="-227" type="line"/>
      <point x="124" y="-88" type="line"/>
      <point x="351" y="-88" type="line"/>
      <point x="351" y="1331" type="line"/>
      <point x="122" y="1331" type="line"/>
      <point x="122" y="1470" type="line"/>
      <point x="532" y="1470" type="line"/>
      <point x="532" y="-227" type="line"/>
    </contour>
  </outline>
</glyph>
<glyph name="grave" format="1">
  <advance width="597"/>
  <unicode hex="0060"/>
  <outline>
    <contour>
      <point x="463" y="1026" type="move" name="_top"/>
    </contour>
    <contour>
      <point x="383" y="1173" type="line"/>
      <point x="46" y="1533" type="line"/>
      <point x="286" y="1533" type="line"/>
      <point x="536" y="1173" type="line"/>
    </contour>
  </outline>
</glyph>
<glyph name="a" format="1">
  <advance width="1273"/>
  <unicode hex="0061"/>
  <outline>
    <contour>
      <point x="593" y="1026" type="move" name="top"/>
    </contour>
    <contour>
      <point x="615" y="128" type="curve" smooth="yes"/>
      <point x="825" y="128"/>
      <point x="929" y="288"/>
      <point x="929" y="521" type="curve" smooth="yes"/>
      <point x="929" y="738"/>
      <point x="823" y="902"/>
      <point x="613" y="902" type="curve" smooth="yes"/>
      <point x="391" y="902"/>
      <point x="286" y="736"/>
      <point x="286" y="518" type="curve" smooth="yes"/>
      <point x="286" y="300"/>
      <point x="391" y="128"/>
    </contour>
    <contour>
      <point x="589" y="-22" type="curve" smooth="yes"/>
      <point x="274" y="-22"/>
      <point x="101" y="225"/>
      <point x="101" y="513" type="curve" smooth="yes"/>
      <point x="101" y="811"/>
      <point x="288" y="1052"/>
      <point x="589" y="1052" type="curve" smooth="yes"/>
      <point x="739" y="1052"/>
      <point x="864" y="970"/>
      <point x="923" y="863" type="curve"/>
      <point x="923" y="1026" type="line"/>
      <point x="1105" y="1026" type="line"/>
      <point x="1105" y="0" type="line"/>
      <point x="921" y="0" type="line"/>
      <point x="921" y="175" type="line"/>
      <point x="863" y="55"/>
      <point x="743" y="-22"/>
    </contour>
  </outline>
</glyph>
<glyph name="b" format="1">
  <advance width="1274"/>
  <unicode hex="0062"/>
  <outline>
    <contour>
      <point x="707" y="1026" type="move" name="top"/>
    </contour>
    <contour>
      <point x="679" y="128" type="curve" smooth="yes"/>
      <point x="879" y="128"/>
      <point x="980" y="288"/>
      <point x="980" y="524" type="curve" smooth="yes"/>
      <point x="980" y="744"/>
      <point x="872" y="902"/>
      <point x="678" y="902" type="curve" smooth="yes"/>
      <point x="474" y="902"/>
      <point x="349" y="743"/>
      <point x="349" y="516" type="curve" smooth="yes"/>
      <point x="349" y="287"/>
      <point x="472" y="128"/>
    </contour>
    <contour>
      <point x="703" y="-22" type="curve" smooth="yes"/>
      <point x="532" y="-22"/>
      <point x="403" y="68"/>
      <point x="353" y="174" type="curve"/>
      <point x="352" y="0" type="line"/>
      <point x="164" y="0" type="line"/>
      <point x="167" y="100"/>
      <point x="171" y="224"/>
      <point x="171" y="270" type="curve" smooth="yes"/>
      <point x="171" y="1486" type="line"/>
      <point x="356" y="1486" type="line"/>
      <point x="356" y="852" type="line"/>
      <point x="399" y="947"/>
      <point x="519" y="1052"/>
      <point x="706" y="1052" type="curve" smooth="yes"/>
      <point x="991" y="1052"/>
      <point x="1172" y="843"/>
      <point x="1172" y="526" type="curve" smooth="yes"/>
      <point x="1172" y="192"/>
      <point x="973" y="-22"/>
    </contour>
  </outline>
</glyph>
<glyph name="h" format="1">
  <advance width="1237"/>
  <unicode hex="0068"/>
  <outline>
    <contour>
      <point x="698" y="1026" type="move" name="top"/>
    </contour>
    <contour>
      <point x="166" y="0" type="line"/>
      <point x="166" y="1486" type="line"/>
      <point x="350" y="1486" type="line"/>
      <point x="350" y="865" type="line"/>
      <point x="412" y="977"/>
      <point x="554" y="1052"/>
      <point x="699" y="1052" type="curve" smooth="yes"/>
      <point x="962" y="1052"/>
      <point x="1079" y="857"/>
      <point x="1079" y="619" type="curve" smooth="yes"/>
      <point x="1079" y="0" type="line"/>
      <point x="894" y="0" type="line"/>
      <point x="894" y="614" type="line" smooth="yes"/>
      <point x="894" y="814"/>
      <point x="829" y="902"/>
      <point x="674" y="902" type="curve" smooth="yes"/>
      <point x="506" y="902"/>
      <point x="350" y="769"/>
      <point x="350" y="622" type="curve" smooth="yes"/>
      <point x="350" y="0" type="line"/>
    </contour>
  </outline>
</glyph>
<glyph name="m" format="1">
  <advance width="1881"/>
  <unicode hex="006D"/>
  <outline>
    <contour>
      <point x="997" y="1026" type="move" name="top"/>
    </contour>
    <contour>
      <point x="177" y="0" type="line"/>
      <point x="177" y="758" type="line" smooth="yes"/>
      <point x="177" y="871"/>
      <point x="169" y="967"/>
      <point x="166" y="1026" type="curve"/>
      <point x="357" y="1026" type="line"/>
      <point x="359" y="860" type="line"/>
      <point x="415" y="982"/>
      <point x="548" y="1052"/>
      <point x="687" y="1052" type="curve" smooth="yes"/>
      <point x="832" y="1052"/>
      <point x="949" y="973"/>
      <point x="999" y="830" type="curve"/>
      <point x="1073" y="967"/>
      <point x="1204" y="1052"/>
      <point x="1366" y="1052" type="curve" smooth="yes"/>
      <point x="1603" y="1052"/>
      <point x="1722" y="892"/>
      <point x="1722" y="628" type="curve" smooth="yes"/>
      <point x="1722" y="0" type="line"/>
      <point x="1538" y="0" type="line"/>
      <point x="1538" y="613" type="line" smooth="yes"/>
      <point x="1538" y="787"/>
      <point x="1483" y="902"/>
      <point x="1350" y="902" type="curve" smooth="yes"/>
      <point x="1186" y="902"/>
      <point x="1052" y="767"/>
      <point x="1044" y="592" type="curve"/>
      <point x="1044" y="0" type="line"/>
      <point x="860" y="0" type="line"/>
      <point x="860" y="629" type="line" smooth="yes"/>
      <point x="860" y="780"/>
      <point x="807" y="902"/>
      <point x="659" y="902" type="curve" smooth="yes"/>
      <point x="494" y="902"/>
      <point x="372" y="775"/>
      <point x="362" y="625" type="curve"/>
      <point x="362" y="0" type="line"/>
    </contour>
  </outline>
</glyph>
<glyph name="p" format="1">
  <advance width="1263"/>
  <unicode hex="0070"/>
  <outline>
    <contour>
      <point x="676" y="1026" type="move" name="top"/>
    </contour>
    <contour>
      <point x="669" y="127" type="curve" smooth="yes"/>
      <point x="867" y="127"/>
      <point x="971" y="289"/>
      <point x="971" y="516" type="curve" smooth="yes"/>
      <point x="971" y="742"/>
      <point x="866" y="901"/>
      <point x="670" y="901" type="curve" smooth="yes"/>
      <point x="468" y="901"/>
      <point x="355" y="736"/>
      <point x="355" y="503" type="curve" smooth="yes"/>
      <point x="355" y="282"/>
      <point x="465" y="127"/>
    </contour>
    <contour>
      <point x="177" y="-428" type="line"/>
      <point x="177" y="728" type="line" smooth="yes"/>
      <point x="177" y="814"/>
      <point x="170" y="942"/>
      <point x="166" y="1026" type="curve"/>
      <point x="359" y="1026" type="line"/>
      <point x="360" y="842" type="line"/>
      <point x="397" y="951"/>
      <point x="537" y="1051"/>
      <point x="704" y="1051" type="curve" smooth="yes"/>
      <point x="986" y="1051"/>
      <point x="1162" y="828"/>
      <point x="1162" y="522" type="curve" smooth="yes"/>
      <point x="1162" y="212"/>
      <point x="984" y="-23"/>
      <point x="700" y="-23" type="curve" smooth="yes"/>
      <point x="530" y="-23"/>
      <point x="395" y="72"/>
      <point x="360" y="166" type="curve"/>
      <point x="360" y="-428" type="line"/>
    </contour>
  </outline>
</glyph>
<glyph name="q" format="1">
  <advance width="1259"/>
  <unicode hex="0071"/>
  <outline>
    <contour>
      <point x="596" y="129" type="curve" smooth="yes"/>
      <point x="795" y="129"/>
      <point x="902" y="288"/>
      <point x="902" y="531" type="curve" smooth="yes"/>
      <point x="902" y="750"/>
      <point x="792" y="901"/>
      <point x="603" y="901" type="curve" smooth="yes"/>
      <point x="408" y="901"/>
      <point x="295" y="744"/>
      <point x="295" y="510" type="curve" smooth="yes"/>
      <point x="295" y="283"/>
      <point x="403" y="129"/>
    </contour>
    <contour>
      <point x="899" y="-419" type="line"/>
      <point x="899" y="150" type="line"/>
      <point x="845" y="68"/>
      <point x="735" y="-22"/>
      <point x="574" y="-22" type="curve" smooth="yes"/>
      <point x="284" y="-22"/>
      <point x="100" y="198"/>
      <point x="100" y="512" type="curve" smooth="yes"/>
      <point x="100" y="832"/>
      <point x="285" y="1052"/>
      <point x="582" y="1052" type="curve" smooth="yes"/>
      <point x="720" y="1052"/>
      <point x="835" y="986"/>
      <point x="899" y="884" type="curve"/>
      <point x="899" y="1026" type="line"/>
      <point x="1090" y="1026" type="line"/>
      <point x="1089" y="999"/>
      <point x="1083" y="818"/>
      <point x="1083" y="792" type="curve" smooth="yes"/>
      <point x="1083" y="-419" type="line"/>
    </contour>
  </outline>
</glyph>
<glyph name="r" format="1">
  <advance width="803"/>
  <unicode hex="0072"/>
  <outline>
    <contour>
      <point x="518" y="1026" type="move" name="top"/>
    </contour>
    <contour>
      <point x="179" y="0" type="line"/>
      <point x="179" y="774" type="line" smooth="yes"/>
      <point x="179" y="851"/>
      <point x="166" y="1026"/>
      <point x="166" y="1026" type="curve"/>
      <point x="361" y="1026" type="line"/>
      <point x="363" y="866" type="line"/>
      <point x="424" y="987"/>
      <point x="520" y="1050"/>
      <point x="637" y="1050" type="curve" smooth="yes"/>
      <point x="671" y="1050"/>
      <point x="706" y="1047"/>
      <point x="741" y="1038" type="curve"/>
      <point x="740" y="875" type="line"/>
      <point x="707" y="884"/>
      <point x="667" y="891"/>
      <point x="627" y="891" type="curve" smooth="yes"/>
      <point x="475" y="891"/>
      <point x="365" y="784"/>
      <point x="365" y="571" type="curve" smooth="yes"/>
      <point x="365" y="0" type="line"/>
    </contour>
  </outline>
</glyph>
<glyph name="v" format="1">
  <advance width="1056"/>
  <unicode hex="0076"/>
  <outline>
    <contour>
      <point x="441" y="0" type="line"/>
      <point x="11" y="1026" type="line"/>
      <point x="212" y="1026" type="line"/>
      <point x="319.97" y="747.304"/>
      <point x="431.52" y="472.187"/>
      <point x="536" y="190" type="curve"/>
      <point x="633.136" y="476.198"/>
      <point x="745.436" y="747.231"/>
      <point x="850" y="1026" type="curve"/>
      <point x="1047" y="1026" type="line"/>
      <point x="617" y="0" type="line"/>
    </contour>
  </outline>
</glyph>
<glyph name="w" format="1">
  <advance width="1636"/>
  <unicode hex="0077"/>
  <outline>
    <contour>
      <point x="839" y="1026" type="move" name="top"/>
    </contour>
    <contour>
      <point x="372" y="0" type="line"/>
      <point x="31" y="1026" type="line"/>
      <point x="227" y="1026" type="line"/>
      <point x="309.091" y="756.091"/>
      <point x="389.978" y="484.978"/>
      <point x="473" y="216" type="curve"/>
      <point x="563.319" y="486.681"/>
      <point x="655.074" y="755.926"/>
      <point x="746" y="1026" type="curve"/>
      <point x="925" y="1026" type="line"/>
      <point x="1013.09" y="755.757"/>
      <point x="1100.15" y="484.48"/>
      <point x="1189" y="215" type="curve"/>
      <point x="1269.4" y="483.935"/>
      <point x="1346.84" y="755.831"/>
      <point x="1426" y="1026" type="curve"/>
      <point x="1605" y="1026" type="line"/>
      <point x="1264" y="0" type="line"/>
      <point x="1091" y="0" type="line"/>
      <point x="1002.75" y="267.754"/>
      <point x="912.999" y="533.999"/>
      <point x="826" y="803" type="curve"/>
      <point x="734.222" y="533.112"/>
      <point x="637.835" y="267.832"/>
      <point x="544" y="0" type="curve"/>
    </contour>
  </outline>
</glyph>
<glyph name="x" format="1">
  <advance width="1066"/>
  <unicode hex="0078"/>
  <outline>
    <contour>
      <point x="45" y="0" type="line"/>
      <point x="434" y="512" type="line"/>
      <point x="68" y="1027" type="line"/>
      <point x="269" y="1026" type="line"/>
      <point x="533" y="645" type="line"/>
      <point x="817" y="1026" type="line"/>
      <point x="1011" y="1026" type="line"/>
      <point x="636" y="524" type="line"/>
      <point x="1019" y="0" type="line"/>
      <point x="819" y="0" type="line"/>
      <point x="535" y="392" type="line"/>
      <point x="240" y="0" type="line"/>
    </contour>
  </outline>
</glyph>
<glyph name="y" format="1">
  <advance width="1065"/>
  <unicode hex="0079"/>
  <outline>
    <contour>
      <point x="550" y="1026" type="move" name="top"/>
    </contour>
    <contour>
      <point x="209" y="-433" type="curve"/>
      <point x="134" y="-307" type="line"/>
      <point x="329" y="-242"/>
      <point x="410" y="-143"/>
      <point x="443" y="-44" type="curve" smooth="yes"/>
      <point x="460" y="8" type="line"/>
      <point x="41" y="1026" type="line"/>
      <point x="234" y="1026" type="line"/>
      <point x="551" y="206" type="line"/>
      <point x="848" y="1026" type="line"/>
      <point x="1033" y="1026" type="line"/>
      <point x="619" y="-54" type="line"/>
      <point x="547" y="-245"/>
      <point x="403" y="-385"/>
    </contour>
  </outline>
</glyph>
<glyph name="braceleft" format="1">
  <advance width="789"/>
  <unicode hex="007B"/>
  <outline>
    <contour>
      <point x="504" y="1130" type="curve" smooth="yes"/>
      <point x="504" y="868" type="line" smooth="yes"/>
      <point x="504" y="737"/>
      <point x="427" y="658"/>
      <point x="329" y="624" type="curve"/>
      <point x="433" y="581"/>
      <point x="504" y="489"/>
      <point x="504" y="354" type="curve" smooth="yes"/>
      <point x="504" y="98" type="line" smooth="yes"/>
      <point x="504" y="-43"/>
      <point x="565" y="-78"/>
      <point x="699" y="-78" type="curve"/>
      <point x="699" y="-221" type="line"/>
      <point x="413" y="-219"/>
      <point x="318" y="-104"/>
      <point x="318" y="83" type="curve" smooth="yes"/>
      <point x="318" y="329" type="line" smooth="yes"/>
      <point x="318" y="475"/>
      <point x="270" y="553"/>
      <point x="126" y="565" type="curve"/>
      <point x="126" y="691" type="line"/>
      <point x="259" y="701"/>
      <point x="316" y="775"/>
      <point x="317" y="910" type="curve"/>
      <point x="317" y="1155" type="line" smooth="yes"/>
      <point x="317" y="1336"/>
      <point x="396" y="1475"/>
      <point x="700" y="1475" type="curve"/>
      <point x="700" y="1332" type="line"/>
      <point x="545" y="1331"/>
      <point x="504" y="1262"/>
    </contour>
  </outline>
</glyph>
<glyph name="exclamdown" format="1">
  <advance width="572"/>
  <unicode hex="00A1"/>
  <outline>
    <contour>
      <point x="194" y="1140" type="line"/>
      <point x="380" y="1140" type="line"/>
      <point x="380" y="920" type="line"/>
      <point x="194" y="920" type="line"/>
    </contour>
    <contour>
      <point x="232" y="763" type="line"/>
      <point x="340" y="763" type="line"/>
      <point x="395" y="-316" type="line"/>
      <point x="177" y="-316" type="line"/>
    </contour>
  </outline>
</glyph>
<glyph name="cent" format="1">
  <advance width="1030"/>
  <unicode hex="00A2"/>
  <outline>
    <contour>
      <point x="669" y="-20.6156" type="curve"/>
      <point x="669" y="-213" type="line"/>
      <point x="586" y="-213" type="line"/>
      <point x="586" y="-20.937" type="line"/>
      <point x="286.264" y="-3.97664"/>
      <point x="101" y="214.182"/>
      <point x="101" y="507" type="curve" smooth="yes"/>
      <point x="101" y="815.555"/>
      <point x="291.725" y="1031.94"/>
      <point x="586" y="1050.68" type="curve"/>
      <point x="586" y="1252" type="line"/>
      <point x="669" y="1252" type="line"/>
      <point x="669" y="1050.72" type="line"/>
      <point x="790.538" y="1043.07"/>
      <point x="894.978" y="1001.12"/>
      <point x="967" y="930" type="curve"/>
      <point x="902" y="808" type="line"/>
      <point x="845.435" y="857.267"/>
      <point x="764.73" y="894.048"/>
      <point x="669" y="900.117" type="curve"/>
      <point x="669" y="129.061" type="line"/>
      <point x="776.463" y="136.437"/>
      <point x="862.261" y="181.053"/>
      <point x="918" y="224" type="curve"/>
      <point x="976" y="91" type="line"/>
      <point x="892.128" y="25.8656"/>
      <point x="790.742" y="-12.9971"/>
    </contour>
    <contour>
      <point x="586" y="131.098" type="curve"/>
      <point x="586" y="897.498" type="line"/>
      <point x="411.981" y="874.714"/>
      <point x="291" y="741.148"/>
      <point x="291" y="508" type="curve" smooth="yes"/>
      <point x="291" y="295.499"/>
      <point x="403.422" y="153.472"/>
    </contour>
  </outline>
</glyph>
<glyph name="yen" format="1">
  <advance width="1221"/>
  <unicode hex="00A5"/>
  <outline>
    <contour>
      <point x="178" y="281" type="line"/>
      <point x="178" y="397" type="line"/>
      <point x="509" y="397" type="line"/>
      <point x="509" y="558" type="line"/>
      <point x="178" y="558" type="line"/>
      <point x="178" y="678" type="line"/>
      <point x="450.427" y="678" type="line"/>
      <point x="8" y="1456" type="line"/>
      <point x="220" y="1456" type="line"/>
      <point x="609" y="743" type="line"/>
      <point x="1000" y="1456" type="line"/>
      <point x="1213" y="1456" type="line"/>
      <point x="759.314" y="678" type="line"/>
      <point x="1032" y="678" type="line"/>
      <point x="1032" y="558" type="line"/>
      <point x="701" y="558" type="line"/>
      <point x="701" y="397" type="line"/>
      <point x="1033" y="397" type="line"/>
      <point x="1033" y="281" type="line"/>
      <point x="701" y="281" type="line"/>
      <point x="701" y="0" type="line"/>
      <point x="509" y="0" type="line"/>
      <point x="509" y="281" type="line"/>
    </contour>
  </outline>
</glyph>
<glyph name="brokenbar" format="1">
  <advance width="500"/>
  <unicode hex="00A6"/>
  <outline>
    <contour>
      <point x="197" y="648" type="line"/>
      <point x="197" y="1535" type="line"/>
      <point x="357" y="1535" type="line"/>
      <point x="357" y="648" type="line"/>
    </contour>
    <contour>
      <point x="198" y="-482" type="line"/>
      <point x="198" y="399" type="line"/>
      <point x="358" y="399" type="line"/>
      <point x="358" y="-482" type="line"/>
    </contour>
  </outline>
</glyph>
<glyph name="section" format="1">
  <advance width="1069"/>
  <unicode hex="00A7"/>
  <outline>
    <contour>
      <point x="611" y="530" type="curve"/>
      <point x="669" y="566"/>
      <point x="723" y="629"/>
      <point x="723" y="701" type="curve" smooth="yes"/>
      <point x="723" y="798"/>
      <point x="629" y="830"/>
      <point x="508" y="888" type="curve"/>
      <point x="444" y="859"/>
      <point x="363" y="800"/>
      <point x="363" y="727" type="curve" smooth="yes"/>
      <point x="363" y="638"/>
      <point x="462" y="595"/>
    </contour>
    <contour>
      <point x="507" y="-75" type="curve" smooth="yes"/>
      <point x="409" y="-75"/>
      <point x="300" y="-56"/>
      <point x="205" y="-19" type="curve"/>
      <point x="205" y="131" type="line"/>
      <point x="313" y="86"/>
      <point x="413" y="65"/>
      <point x="495" y="65" type="curve" smooth="yes"/>
      <point x="630.858" y="65"/>
      <point x="719.007" y="122.17"/>
      <point x="719.007" y="225.229" type="curve" smooth="yes"/>
      <point x="719.007" y="307.388"/>
      <point x="618.97" y="346.485"/>
      <point x="412" y="444" type="curve" smooth="yes"/>
      <point x="272" y="509"/>
      <point x="188" y="587"/>
      <point x="188" y="714" type="curve" smooth="yes"/>
      <point x="188" y="821"/>
      <point x="280" y="914"/>
      <point x="384" y="958" type="curve"/>
      <point x="281" y="1023"/>
      <point x="214" y="1087"/>
      <point x="214" y="1201" type="curve" smooth="yes"/>
      <point x="214" y="1396"/>
      <point x="390" y="1486"/>
      <point x="592" y="1486" type="curve" smooth="yes"/>
      <point x="679" y="1486"/>
      <point x="761" y="1474"/>
      <point x="843" y="1446" type="curve"/>
      <point x="843" y="1311" type="line"/>
      <point x="773" y="1337"/>
      <point x="692" y="1352"/>
      <point x="618" y="1352" type="curve" smooth="yes"/>
      <point x="497" y="1352"/>
      <point x="394" y="1310"/>
      <point x="394" y="1208" type="curve" smooth="yes"/>
      <point x="394" y="1134"/>
      <point x="464" y="1084"/>
      <point x="627" y="1008" type="curve" smooth="yes"/>
      <point x="788" y="930"/>
      <point x="910" y="864"/>
      <point x="910" y="721" type="curve" smooth="yes"/>
      <point x="910" y="614"/>
      <point x="825" y="523"/>
      <point x="731" y="464" type="curve"/>
      <point x="828" y="413"/>
      <point x="900" y="344"/>
      <point x="900" y="231" type="curve" smooth="yes"/>
      <point x="900" y="25"/>
      <point x="722" y="-75"/>
    </contour>
  </outline>
</glyph>
<glyph name="ordfeminine" format="1">
  <advance width="791"/>
  <unicode hex="00AA"/>
  <outline>
    <contour>
      <point x="348" y="867" type="curve" smooth="yes"/>
      <point x="466" y="867"/>
      <point x="546" y="949"/>
      <point x="546" y="1067" type="curve" smooth="yes"/>
      <point x="546" y="1089" type="line"/>
      <point x="326" y="1089"/>
      <point x="229" y="1089"/>
      <point x="229" y="974" type="curve" smooth="yes"/>
      <point x="229" y="904"/>
      <point x="278" y="867"/>
    </contour>
    <contour>
      <point x="333" y="760" type="curve" smooth="yes"/>
      <point x="195" y="760"/>
      <point x="91" y="839"/>
      <point x="91" y="969" type="curve" smooth="yes"/>
      <point x="91" y="1099"/>
      <point x="183" y="1178"/>
      <point x="372" y="1178" type="curve" smooth="yes"/>
      <point x="546" y="1178" type="line"/>
      <point x="546" y="1214" type="line" smooth="yes"/>
      <point x="546" y="1324"/>
      <point x="504" y="1367"/>
      <point x="404" y="1367" type="curve" smooth="yes"/>
      <point x="285" y="1367"/>
      <point x="170" y="1313"/>
      <point x="170" y="1313" type="curve"/>
      <point x="128" y="1414" type="line"/>
      <point x="128" y="1414"/>
      <point x="248" y="1481"/>
      <point x="414" y="1481" type="curve" smooth="yes"/>
      <point x="565" y="1481"/>
      <point x="692" y="1414"/>
      <point x="694" y="1229" type="curve" smooth="yes"/>
      <point x="694" y="1220"/>
      <point x="693" y="917"/>
      <point x="693" y="917" type="curve" smooth="yes"/>
      <point x="693" y="877"/>
      <point x="695" y="849"/>
      <point x="700" y="783" type="curve"/>
      <point x="559" y="783" type="line"/>
      <point x="551" y="878" type="line"/>
      <point x="518" y="814"/>
      <point x="439" y="760"/>
    </contour>
  </outline>
</glyph>
<glyph name="guillemotleft" format="1">
  <advance width="1118"/>
  <unicode hex="00AB"/>
  <outline>
    <contour>
      <point x="832" y="170" type="line"/>
      <point x="561" y="543" type="line"/>
      <point x="838" y="918" type="line"/>
      <point x="1001" y="918" type="line"/>
      <point x="752" y="543" type="line"/>
      <point x="993" y="170" type="line"/>
    </contour>
    <contour>
      <point x="403" y="170" type="line"/>
      <point x="132" y="543" type="line"/>
      <point x="408" y="918" type="line"/>
      <point x="570" y="918" type="line"/>
      <point x="323" y="543" type="line"/>
      <point x="562" y="170" type="line"/>
    </contour>
  </outline>
</glyph>
<glyph name="logicalnot" format="1">
  <advance width="1464"/>
  <unicode hex="00AC"/>
  <outline>
    <contour>
      <point x="1079" y="234" type="line"/>
      <point x="1079" y="646" type="line"/>
      <point x="197" y="646" type="line"/>
      <point x="197" y="802" type="line"/>
      <point x="1249" y="802" type="line"/>
      <point x="1249" y="234" type="line"/>
    </contour>
  </outline>
</glyph>
<glyph name="registered" format="1">
  <advance width="1728"/>
  <unicode hex="00AE"/>
  <outline>
    <contour>
      <point x="863" y="-25" type="curve" smooth="yes"/>
      <point x="448" y="-25"/>
      <point x="108" y="312"/>
      <point x="108" y="728" type="curve" smooth="yes"/>
      <point x="108" y="1144"/>
      <point x="448" y="1483"/>
      <point x="863" y="1483" type="curve" smooth="yes"/>
      <point x="1280" y="1483"/>
      <point x="1621" y="1144"/>
      <point x="1621" y="728" type="curve" smooth="yes"/>
      <point x="1621" y="312"/>
      <point x="1280" y="-25"/>
    </contour>
    <contour>
      <point x="865" y="75" type="curve" smooth="yes"/>
      <point x="1218" y="75"/>
      <point x="1503" y="371"/>
      <point x="1503" y="725" type="curve" smooth="yes"/>
      <point x="1503" y="1080"/>
      <point x="1218" y="1381"/>
      <point x="865" y="1381" type="curve" smooth="yes"/>
      <point x="510" y="1381"/>
      <point x="225" y="1080"/>
      <point x="225" y="725" type="curve" smooth="yes"/>
      <point x="225" y="371"/>
      <point x="510" y="75"/>
    </contour>
    <contour>
      <point x="706" y="777" type="line"/>
      <point x="823" y="777" type="line" smooth="yes"/>
      <point x="983" y="777"/>
      <point x="1063" y="801"/>
      <point x="1063" y="914" type="curve" smooth="yes"/>
      <point x="1063" y="1038"/>
      <point x="1015" y="1055"/>
      <point x="822" y="1055" type="curve" smooth="yes"/>
      <point x="706" y="1055" type="line"/>
    </contour>
    <contour>
      <point x="544" y="278" type="line"/>
      <point x="544" y="1187" type="line"/>
      <point x="827" y="1187" type="line" smooth="yes"/>
      <point x="1117" y="1187"/>
      <point x="1233" y="1094"/>
      <point x="1233" y="928" type="curve" smooth="yes"/>
      <point x="1233" y="812"/>
      <point x="1191" y="715"/>
      <point x="1025" y="681" type="curve"/>
      <point x="1235" y="278" type="line"/>
      <point x="1051" y="278" type="line"/>
      <point x="867" y="660" type="line"/>
      <point x="708" y="660" type="line"/>
      <point x="708" y="278" type="line"/>
    </contour>
  </outline>
</glyph>
<glyph name="macron" format="1">
  <advance width="720"/>
  <unicode hex="00AF"/>
  <outline>
    <contour>
      <point x="341" y="1026" type="move" name="_top"/>
    </contour>
    <contour>
      <point x="68" y="1242" type="line"/>
      <point x="68" y="1366" type="line"/>
      <point x="652" y="1366" type="line"/>
      <point x="652" y="1242" type="line"/>
    </contour>
  </outline>
</glyph>
<glyph name="plusminus" format="1">
  <advance width="1232"/>
  <unicode hex="00B1"/>
  <outline>
    <contour>
      <point x="184" y="0" type="line"/>
      <point x="184" y="132" type="line"/>
      <point x="1057" y="132" type="line"/>
      <point x="1057" y="0" type="line"/>
    </contour>
    <contour>
      <point x="532" y="255" type="line"/>
      <point x="532" y="594" type="line"/>
      <point x="194" y="594" type="line"/>
      <point x="194" y="749" type="line"/>
      <point x="530" y="749" type="line"/>
      <point x="530" y="1089" type="line"/>
      <point x="700" y="1089" type="line"/>
      <point x="700" y="749" type="line"/>
      <point x="1034" y="749" type="line"/>
      <point x="1034" y="594" type="line"/>
      <point x="705" y="594" type="line"/>
      <point x="705" y="255" type="line"/>
    </contour>
  </outline>
</glyph>
<glyph name="acute" format="1">
  <advance width="607"/>
  <unicode hex="00B4"/>
  <outline>
    <contour>
      <point x="141" y="1026" type="move" name="_top"/>
    </contour>
    <contour>
      <point x="73" y="1172" type="line"/>
      <point x="309" y="1532" type="line"/>
      <point x="546" y="1532" type="line"/>
      <point x="227" y="1172" type="line"/>
    </contour>
  </outline>
</glyph>
<glyph name="paragraph" format="1">
  <advance width="1210"/>
  <unicode hex="00B6"/>
  <outline>
    <contour>
      <point x="483" y="-179" type="line"/>
      <point x="483" y="813" type="line"/>
      <point x="293" y="818"/>
      <point x="130" y="929"/>
      <point x="130" y="1133" type="curve" smooth="yes"/>
      <point x="130" y="1387"/>
      <point x="321" y="1456"/>
      <point x="599" y="1456" type="curve" smooth="yes"/>
      <point x="1049" y="1456" type="line"/>
      <point x="1049" y="1315" type="line"/>
      <point x="945" y="1315" type="line"/>
      <point x="945" y="-179" type="line"/>
      <point x="810" y="-179" type="line"/>
      <point x="810" y="1315" type="line"/>
      <point x="619" y="1315" type="line"/>
      <point x="619" y="-179" type="line"/>
    </contour>
  </outline>
</glyph>
<glyph name="ordmasculine" format="1">
  <advance width="885"/>
  <unicode hex="00BA"/>
  <outline>
    <contour>
      <point x="447" y="752" type="curve" smooth="yes"/>
      <point x="204" y="752"/>
      <point x="78" y="909"/>
      <point x="78" y="1111" type="curve" smooth="yes"/>
      <point x="78" y="1310"/>
      <point x="211" y="1466"/>
      <point x="445" y="1466" type="curve" smooth="yes"/>
      <point x="682" y="1466"/>
      <point x="810" y="1308"/>
      <point x="810" y="1107" type="curve" smooth="yes"/>
      <point x="810" y="912"/>
      <point x="681" y="752"/>
    </contour>
    <contour>
      <point x="447" y="879" type="curve" smooth="yes"/>
      <point x="576" y="879"/>
      <point x="658" y="968"/>
      <point x="658" y="1105" type="curve" smooth="yes"/>
      <point x="658" y="1248"/>
      <point x="576" y="1336"/>
      <point x="445" y="1336" type="curve" smooth="yes"/>
      <point x="317" y="1336"/>
      <point x="234" y="1248"/>
      <point x="234" y="1109" type="curve" smooth="yes"/>
      <point x="234" y="965"/>
      <point x="310" y="879"/>
    </contour>
  </outline>
</glyph>
<glyph name="guillemotright" format="1">
  <advance width="1118"/>
  <unicode hex="00BB"/>
  <outline>
    <contour>
      <point x="565" y="168" type="line"/>
      <point x="812" y="543" type="line"/>
      <point x="573" y="916" type="line"/>
      <point x="732" y="916" type="line"/>
      <point x="1003" y="543" type="line"/>
      <point x="727" y="168" type="line"/>
    </contour>
    <contour>
      <point x="135" y="168" type="line"/>
      <point x="382" y="543" type="line"/>
      <point x="143" y="916" type="line"/>
      <point x="303" y="916" type="line"/>
      <point x="574" y="543" type="line"/>
      <point x="297" y="168" type="line"/>
    </contour>
  </outline>
</glyph>
<glyph name="onequarter" format="1">
  <advance width="1970"/>
  <unicode hex="00BC"/>
  <outline>
    <contour>
      <point x="1278" y="300" type="line"/>
      <point x="1522" y="300" type="line"/>
      <point x="1522" y="643" type="line"/>
    </contour>
    <contour>
      <point x="492" y="0" type="line"/>
      <point x="1394" y="1456" type="line"/>
      <point x="1553" y="1456" type="line"/>
      <point x="654" y="0" type="line"/>
    </contour>
    <contour>
      <point x="1524" y="0" type="line"/>
      <point x="1524" y="190" type="line"/>
      <point x="1146" y="190" type="line"/>
      <point x="1146" y="285" type="line"/>
      <point x="1515" y="800" type="line"/>
      <point x="1661" y="800" type="line"/>
      <point x="1661" y="300" type="line"/>
      <point x="1771" y="300" type="line"/>
      <point x="1771" y="190" type="line"/>
      <point x="1659" y="190" type="line"/>
      <point x="1659" y="0" type="line"/>
    </contour>
    <contour>
      <point x="212" y="631" type="line"/>
      <point x="212" y="744" type="line"/>
      <point x="378" y="744" type="line"/>
      <point x="378" y="1317" type="line"/>
      <point x="197" y="1253" type="line"/>
      <point x="198" y="1371" type="line"/>
      <point x="222" y="1378"/>
      <point x="386" y="1446"/>
      <point x="402" y="1456" type="curve"/>
      <point x="520" y="1456" type="line"/>
      <point x="520" y="742" type="line"/>
      <point x="670" y="742" type="line"/>
      <point x="670" y="631" type="line"/>
    </contour>
  </outline>
</glyph>
<glyph name="onehalf" format="1">
  <advance width="2126"/>
  <unicode hex="00BD"/>
  <outline>
    <contour>
      <point x="210" y="631" type="line"/>
      <point x="210" y="744" type="line"/>
      <point x="376" y="744" type="line"/>
      <point x="376" y="1317" type="line"/>
      <point x="196" y="1253" type="line"/>
      <point x="197" y="1371" type="line"/>
      <point x="221" y="1378"/>
      <point x="385" y="1446"/>
      <point x="401" y="1456" type="curve"/>
      <point x="518" y="1456" type="line"/>
      <point x="518" y="742" type="line"/>
      <point x="669" y="742" type="line"/>
      <point x="669" y="631" type="line"/>
    </contour>
    <contour>
      <point x="461" y="0" type="line"/>
      <point x="1363" y="1456" type="line"/>
      <point x="1521" y="1456" type="line"/>
      <point x="623" y="0" type="line"/>
    </contour>
    <contour>
      <point x="1572" y="840" type="curve" smooth="yes"/>
      <point x="1732.46" y="840"/>
      <point x="1846.23" y="750.536"/>
      <point x="1846.23" y="592.053" type="curve" smooth="yes"/>
      <point x="1846.23" y="457.487"/>
      <point x="1769.9" y="385.416"/>
      <point x="1640" y="272" type="curve"/>
      <point x="1474" y="124" type="line"/>
      <point x="1841" y="124" type="line"/>
      <point x="1841" y="0" type="line"/>
      <point x="1283" y="0" type="line"/>
      <point x="1283" y="126" type="line"/>
      <point x="1555" y="377" type="line" smooth="yes"/>
      <point x="1660.04" y="473.596"/>
      <point x="1696.47" y="520.94"/>
      <point x="1696.47" y="589.141" type="curve" smooth="yes"/>
      <point x="1696.47" y="664.224"/>
      <point x="1653.52" y="714"/>
      <point x="1564" y="714" type="curve" smooth="yes"/>
      <point x="1486" y="714"/>
      <point x="1407" y="671"/>
      <point x="1358" y="597" type="curve"/>
      <point x="1284" y="692" type="line"/>
      <point x="1344" y="786"/>
      <point x="1452" y="840"/>
    </contour>
  </outline>
</glyph>
<glyph name="threequarters" format="1">
  <advance width="2126"/>
  <unicode hex="00BE"/>
  <outline>
    <contour>
      <point x="1289" y="300" type="line"/>
      <point x="1533" y="300" type="line"/>
      <point x="1533" y="643" type="line"/>
    </contour>
    <contour>
      <point x="528" y="0" type="line"/>
      <point x="1431" y="1456" type="line"/>
      <point x="1590" y="1456" type="line"/>
      <point x="691" y="0" type="line"/>
    </contour>
    <contour>
      <point x="1535" y="0" type="line"/>
      <point x="1535" y="190" type="line"/>
      <point x="1157" y="190" type="line"/>
      <point x="1157" y="285" type="line"/>
      <point x="1526" y="800" type="line"/>
      <point x="1672" y="800" type="line"/>
      <point x="1672" y="300" type="line"/>
      <point x="1782" y="300" type="line"/>
      <point x="1782" y="190" type="line"/>
      <point x="1670" y="190" type="line"/>
      <point x="1670" y="0" type="line"/>
    </contour>
    <contour>
      <point x="474" y="603" type="curve" smooth="yes"/>
      <point x="376" y="603"/>
      <point x="278" y="636"/>
      <point x="207" y="697" type="curve"/>
      <point x="264" y="792" type="line"/>
      <point x="331" y="741"/>
      <point x="402" y="715"/>
      <point x="466" y="715" type="curve" smooth="yes"/>
      <point x="559" y="715"/>
      <point x="624" y="776"/>
      <point x="624" y="859" type="curve" smooth="yes"/>
      <point x="624" y="943"/>
      <point x="554" y="989"/>
      <point x="436" y="989" type="curve" smooth="yes"/>
      <point x="357" y="989" type="line"/>
      <point x="357" y="1100" type="line"/>
      <point x="432" y="1100" type="line" smooth="yes"/>
      <point x="534" y="1100"/>
      <point x="602" y="1148"/>
      <point x="602" y="1224" type="curve" smooth="yes"/>
      <point x="602" y="1301"/>
      <point x="545" y="1349"/>
      <point x="462" y="1349" type="curve" smooth="yes"/>
      <point x="395" y="1349"/>
      <point x="325" y="1323"/>
      <point x="261" y="1274" type="curve"/>
      <point x="205" y="1362" type="line"/>
      <point x="276" y="1422"/>
      <point x="378" y="1458"/>
      <point x="477" y="1458" type="curve" smooth="yes"/>
      <point x="623" y="1458"/>
      <point x="743" y="1381"/>
      <point x="743" y="1236" type="curve" smooth="yes"/>
      <point x="743" y="1163"/>
      <point x="699" y="1091"/>
      <point x="599" y="1057" type="curve"/>
      <point x="711" y="1024"/>
      <point x="766" y="946"/>
      <point x="766" y="857" type="curve" smooth="yes"/>
      <point x="766" y="692"/>
      <point x="633" y="603"/>
    </contour>
  </outline>
</glyph>
<glyph name="multiply" format="1">
  <advance width="1231"/>
  <unicode hex="00D7"/>
  <outline>
    <contour>
      <point x="335" y="145" type="line"/>
      <point x="218" y="262" type="line"/>
      <point x="507" y="553" type="line"/>
      <point x="218" y="842" type="line"/>
      <point x="335" y="960" type="line"/>
      <point x="625" y="670" type="line"/>
      <point x="914" y="960" type="line"/>
      <point x="1032" y="842" type="line"/>
      <point x="742" y="553" type="line"/>
      <point x="1032" y="263" type="line"/>
      <point x="914" y="145" type="line"/>
      <point x="625" y="433" type="line"/>
    </contour>
  </outline>
</glyph>
<glyph name="Oslash" format="1">
  <advance width="1626"/>
  <unicode hex="00D8"/>
  <outline>
    <contour>
      <point x="816" y="-22" type="curve" smooth="yes"/>
      <point x="1256" y="-22"/>
      <point x="1520" y="273"/>
      <point x="1520" y="729" type="curve" smooth="yes"/>
      <point x="1520" y="1011.78"/>
      <point x="1411.94" y="1238.13"/>
      <point x="1223.18" y="1366.28" type="curve"/>
      <point x="1308" y="1525" type="line"/>
      <point x="1216" y="1572" type="line"/>
      <point x="1133.07" y="1417.09" type="line"/>
      <point x="1041.55" y="1459.25"/>
      <point x="935.798" y="1482"/>
      <point x="818" y="1482" type="curve" smooth="yes"/>
      <point x="371" y="1482"/>
      <point x="107" y="1175"/>
      <point x="107" y="729" type="curve" smooth="yes"/>
      <point x="107" y="432.776"/>
      <point x="218.761" y="205.038"/>
      <point x="418.043" y="81.4603" type="curve"/>
      <point x="330" y="-83" type="line"/>
      <point x="423" y="-131" type="line"/>
      <point x="511.166" y="33.9754" type="line"/>
      <point x="600.093" y="-2.60144"/>
      <point x="702.207" y="-22"/>
    </contour>
    <contour>
      <point x="1138.63" y="1208.08" type="line"/>
      <point x="1254.28" y="1103.79"/>
      <point x="1312" y="934.237"/>
      <point x="1312" y="729" type="curve" smooth="yes"/>
      <point x="1312" y="372"/>
      <point x="1146" y="139"/>
      <point x="814" y="139" type="curve" smooth="yes"/>
      <point x="729.172" y="139"/>
      <point x="654.717" y="154.33"/>
      <point x="590.909" y="183.19" type="curve"/>
    </contour>
    <contour>
      <point x="1053.02" y="1267.57" type="curve"/>
      <point x="501.654" y="237.64" type="line"/>
      <point x="375.773" y="338.061"/>
      <point x="311" y="509.943"/>
      <point x="311" y="729" type="curve" smooth="yes"/>
      <point x="311" y="1075"/>
      <point x="488" y="1321"/>
      <point x="816" y="1321" type="curve" smooth="yes"/>
      <point x="907.756" y="1321"/>
      <point x="986.756" y="1302.17"/>
    </contour>
  </outline>
</glyph>
<glyph name="Thorn" format="1">
  <advance width="1280"/>
  <unicode hex="00DE"/>
  <outline>
    <contour>
      <point x="391" y="508" type="line"/>
      <point x="649" y="508" type="line" smooth="yes"/>
      <point x="857" y="508"/>
      <point x="1000" y="589"/>
      <point x="1000" y="776" type="curve" smooth="yes"/>
      <point x="1000" y="998"/>
      <point x="852" y="1051"/>
      <point x="610" y="1051" type="curve" smooth="yes"/>
      <point x="391" y="1051" type="line"/>
    </contour>
    <contour>
      <point x="200" y="0" type="line"/>
      <point x="200" y="1456" type="line"/>
      <point x="391" y="1456" type="line"/>
      <point x="391" y="1212" type="line"/>
      <point x="598" y="1212" type="line" smooth="yes"/>
      <point x="938" y="1212"/>
      <point x="1205" y="1140"/>
      <point x="1205" y="777" type="curve" smooth="yes"/>
      <point x="1205" y="471"/>
      <point x="960" y="347"/>
      <point x="642" y="347" type="curve" smooth="yes"/>
      <point x="391" y="347" type="line"/>
      <point x="391" y="0" type="line"/>
    </contour>
  </outline>
</glyph>
<glyph name="germandbls" format="1">
  <advance width="1251"/>
  <unicode hex="00DF"/>
  <outline>
    <contour>
      <point x="761.492" y="124.054" type="curve" smooth="yes"/>
      <point x="888.317" y="124.054"/>
      <point x="981" y="193.763"/>
      <point x="981" y="331" type="curve" smooth="yes"/>
      <point x="981" y="521"/>
      <point x="833" y="635"/>
      <point x="556" y="751" type="curve"/>
      <point x="556" y="891" type="line"/>
      <point x="755" y="960"/>
      <point x="824" y="1047"/>
      <point x="824" y="1174" type="curve" smooth="yes"/>
      <point x="824" y="1285"/>
      <point x="736" y="1355"/>
      <point x="602" y="1355" type="curve" smooth="yes"/>
      <point x="436" y="1355"/>
      <point x="348" y="1227"/>
      <point x="348" y="1028" type="curve" smooth="yes"/>
      <point x="348" y="0" type="line"/>
      <point x="167" y="0" type="line"/>
      <point x="166" y="1026" type="line" smooth="yes"/>
      <point x="166" y="1337"/>
      <point x="331" y="1503"/>
      <point x="603" y="1503" type="curve" smooth="yes"/>
      <point x="855" y="1503"/>
      <point x="1015" y="1374"/>
      <point x="1015" y="1181" type="curve" smooth="yes"/>
      <point x="1015" y="1024"/>
      <point x="935" y="924"/>
      <point x="769" y="854" type="curve" smooth="yes"/>
      <point x="755" y="846"/>
      <point x="718" y="832"/>
      <point x="702" y="827" type="curve"/>
      <point x="718" y="823"/>
      <point x="755" y="811"/>
      <point x="771" y="805" type="curve" smooth="yes"/>
      <point x="978" y="730"/>
      <point x="1177" y="595"/>
      <point x="1177" y="343" type="curve" smooth="yes"/>
      <point x="1177" y="118"/>
      <point x="1008" y="-24"/>
      <point x="799" y="-24" type="curve" smooth="yes"/>
      <point x="636" y="-24"/>
      <point x="497" y="29"/>
      <point x="477" y="37" type="curve"/>
      <point x="506" y="182" type="line"/>
      <point x="524.567" y="174.573"/>
      <point x="650.002" y="124.054"/>
    </contour>
  </outline>
</glyph>
<glyph name="eth" format="1">
  <advance width="1223"/>
  <unicode hex="00F0"/>
  <outline>
    <contour>
      <point x="601" y="138" type="curve" smooth="yes"/>
      <point x="788" y="138"/>
      <point x="903" y="274"/>
      <point x="903" y="475" type="curve" smooth="yes"/>
      <point x="903" y="642"/>
      <point x="755" y="752"/>
      <point x="596" y="752" type="curve" smooth="yes"/>
      <point x="421" y="752"/>
      <point x="299" y="640"/>
      <point x="299" y="452" type="curve" smooth="yes"/>
      <point x="299" y="257"/>
      <point x="429" y="138"/>
    </contour>
    <contour>
      <point x="597" y="-22" type="curve" smooth="yes"/>
      <point x="295" y="-22"/>
      <point x="107" y="187"/>
      <point x="107" y="454" type="curve" smooth="yes"/>
      <point x="107" y="721"/>
      <point x="309" y="905"/>
      <point x="592" y="905" type="curve" smooth="yes"/>
      <point x="759" y="905"/>
      <point x="880" y="813"/>
      <point x="927" y="726" type="curve"/>
      <point x="924" y="821"/>
      <point x="847" y="1067"/>
      <point x="682" y="1211" type="curve"/>
      <point x="461" y="1069" type="line"/>
      <point x="395" y="1171" type="line"/>
      <point x="581" y="1290" type="line"/>
      <point x="489" y="1351"/>
      <point x="384" y="1399"/>
      <point x="268" y="1427" type="curve"/>
      <point x="339" y="1552" type="line"/>
      <point x="468" y="1523"/>
      <point x="600" y="1464"/>
      <point x="718" y="1377" type="curve"/>
      <point x="934" y="1516" type="line"/>
      <point x="1000" y="1414" type="line"/>
      <point x="815" y="1296" type="line"/>
      <point x="986" y="1136"/>
      <point x="1105" y="912"/>
      <point x="1105" y="623" type="curve" smooth="yes"/>
      <point x="1105" y="208"/>
      <point x="920" y="-22"/>
    </contour>
  </outline>
</glyph>
<glyph name="oslash" format="1">
  <advance width="1254"/>
  <unicode hex="00F8"/>
  <outline>
    <contour>
      <point x="631" y="-22" type="curve" smooth="yes"/>
      <point x="967" y="-22"/>
      <point x="1157" y="203"/>
      <point x="1157" y="512" type="curve" smooth="yes"/>
      <point x="1157" y="732.9"/>
      <point x="1066.11" y="908.842"/>
      <point x="895.937" y="994.734" type="curve"/>
      <point x="984" y="1189" type="line"/>
      <point x="896" y="1227" type="line"/>
      <point x="806.538" y="1029.34" type="line"/>
      <point x="754.162" y="1044.16"/>
      <point x="696.242" y="1052"/>
      <point x="633" y="1052" type="curve" smooth="yes"/>
      <point x="295" y="1052"/>
      <point x="101" y="828"/>
      <point x="101" y="512" type="curve" smooth="yes"/>
      <point x="101" y="298.655"/>
      <point x="191.464" y="126.043"/>
      <point x="358.375" y="39.1447" type="curve"/>
      <point x="261" y="-176" type="line"/>
      <point x="348" y="-214" type="line"/>
      <point x="446.599" y="3.50631" type="line"/>
      <point x="501.983" y="-13.1358"/>
      <point x="563.563" y="-22"/>
    </contour>
    <contour>
      <point x="827.122" y="842.931" type="line"/>
      <point x="917.683" y="776.304"/>
      <point x="964" y="657.966"/>
      <point x="964" y="512" type="curve" smooth="yes"/>
      <point x="964" y="288"/>
      <point x="854" y="128"/>
      <point x="631" y="128" type="curve" smooth="yes"/>
      <point x="586.665" y="128"/>
      <point x="546.717" y="134.212"/>
      <point x="511.149" y="145.902" type="curve"/>
    </contour>
    <contour>
      <point x="741.624" y="885.915" type="curve"/>
      <point x="426.505" y="189.674" type="line"/>
      <point x="338.086" y="256.119"/>
      <point x="294" y="371.464"/>
      <point x="294" y="512" type="curve" smooth="yes"/>
      <point x="294" y="741"/>
      <point x="408" y="902"/>
      <point x="630" y="902" type="curve" smooth="yes"/>
      <point x="670.886" y="902"/>
      <point x="708.112" y="896.439"/>
    </contour>
  </outline>
</glyph>
<glyph name="lslash" format="1">
  <advance width="503"/>
  <unicode hex="0142"/>
  <outline>
    <contour>
      <point x="156" y="0" type="line"/>
      <point x="156" y="698" type="line"/>
      <point x="1" y="598" type="line"/>
      <point x="1" y="756" type="line"/>
      <point x="156" y="856" type="line"/>
      <point x="156" y="1483" type="line"/>
      <point x="341" y="1483" type="line"/>
      <point x="341" y="977" type="line"/>
      <point x="495" y="1077" type="line"/>
      <point x="495" y="919" type="line"/>
      <point x="341" y="817" type="line"/>
      <point x="341" y="0" type="line"/>
    </contour>
  </outline>
</glyph>
<glyph name="Eng" format="1">
  <advance width="1570"/>
  <unicode hex="014A"/>
  <outline>
    <contour>
      <point x="1391" y="1456" type="line"/>
      <point x="1391" y="56" type="line"/>
      <point x="1390" y="-259"/>
      <point x="1261" y="-436"/>
      <point x="924" y="-436" type="curve"/>
      <point x="924" y="-289" type="line"/>
      <point x="1102" y="-289"/>
      <point x="1205" y="-215"/>
      <point x="1205" y="-28" type="curve" smooth="yes"/>
      <point x="1205" y="55" type="line"/>
      <point x="486" y="1044" type="line"/>
      <point x="384" y="1200" type="line"/>
      <point x="384" y="0" type="line"/>
      <point x="200" y="0" type="line"/>
      <point x="200" y="1456" type="line"/>
      <point x="407" y="1456" type="line"/>
      <point x="1098" y="488" type="line"/>
      <point x="1205" y="327" type="line"/>
      <point x="1205" y="1456" type="line"/>
    </contour>
  </outline>
</glyph>
<glyph name="OE" format="1">
  <advance width="2049"/>
  <unicode hex="0152"/>
  <outline>
    <contour>
      <point x="814.026" y="131.988" type="curve" smooth="yes"/>
      <point x="991.151" y="131.988"/>
      <point x="1088.11" y="203.129"/>
      <point x="1130" y="254" type="curve"/>
      <point x="1130" y="1212" type="line"/>
      <point x="1076.21" y="1265.79"/>
      <point x="980.555" y="1319.59"/>
      <point x="830.437" y="1319.59" type="curve" smooth="yes"/>
      <point x="500.782" y="1319.59"/>
      <point x="312" y="1075.72"/>
      <point x="312" y="725" type="curve" smooth="yes"/>
      <point x="312" y="384.343"/>
      <point x="478.683" y="131.988"/>
    </contour>
    <contour>
      <point x="1130" y="94" type="line"/>
      <point x="1086.32" y="45.9469"/>
      <point x="961.853" y="-22.3062"/>
      <point x="789.085" y="-22.3062" type="curve" smooth="yes"/>
      <point x="370.949" y="-22.3062"/>
      <point x="108" y="261.844"/>
      <point x="108" y="729" type="curve" smooth="yes"/>
      <point x="108" y="1176.95"/>
      <point x="388.276" y="1483.05"/>
      <point x="805.335" y="1483.05" type="curve" smooth="yes"/>
      <point x="977.52" y="1483.05"/>
      <point x="1086.69" y="1422.34"/>
      <point x="1130" y="1381" type="curve"/>
      <point x="1130" y="1456" type="line"/>
      <point x="1941" y="1456" type="line"/>
      <point x="1941" y="1291" type="line"/>
      <point x="1322" y="1291" type="line"/>
      <point x="1322" y="829" type="line"/>
      <point x="1902" y="829" type="line"/>
      <point x="1902" y="663" type="line"/>
      <point x="1322" y="663" type="line"/>
      <point x="1322" y="165" type="line"/>
      <point x="1971" y="165" type="line"/>
      <point x="1971" y="0" type="line"/>
      <point x="1130" y="0" type="line"/>
    </contour>
  </outline>
</glyph>
<glyph name="oe" format="1">
  <advance width="1978"/>
  <unicode hex="0153"/>
  <outline>
    <contour>
      <point x="1115" y="615" type="curve"/>
      <point x="1692" y="615" type="line"/>
      <point x="1692" y="639" type="line"/>
      <point x="1674" y="791"/>
      <point x="1569" y="902"/>
      <point x="1413" y="902" type="curve" smooth="yes"/>
      <point x="1246" y="902"/>
      <point x="1129" y="771"/>
    </contour>
    <contour>
      <point x="624" y="128" type="curve" smooth="yes"/>
      <point x="831" y="128"/>
      <point x="931" y="300"/>
      <point x="931" y="511" type="curve" smooth="yes"/>
      <point x="931" y="736"/>
      <point x="832" y="902"/>
      <point x="620" y="902" type="curve" smooth="yes"/>
      <point x="408" y="902"/>
      <point x="289" y="733"/>
      <point x="289" y="506" type="curve" smooth="yes"/>
      <point x="289" y="294"/>
      <point x="399" y="128"/>
    </contour>
    <contour>
      <point x="620" y="-22" type="curve" smooth="yes"/>
      <point x="288" y="-22"/>
      <point x="95" y="203"/>
      <point x="95" y="509" type="curve" smooth="yes"/>
      <point x="95" y="817"/>
      <point x="283" y="1052"/>
      <point x="621" y="1052" type="curve" smooth="yes"/>
      <point x="815" y="1052"/>
      <point x="949" y="961"/>
      <point x="1023" y="823" type="curve"/>
      <point x="1093" y="967"/>
      <point x="1221" y="1054"/>
      <point x="1412" y="1054" type="curve" smooth="yes"/>
      <point x="1700" y="1054"/>
      <point x="1864" y="840"/>
      <point x="1864" y="524" type="curve" smooth="yes"/>
      <point x="1864" y="471" type="line"/>
      <point x="1113" y="471" type="line"/>
      <point x="1114" y="469"/>
      <point x="1114" y="443"/>
      <point x="1115" y="440" type="curve" smooth="yes"/>
      <point x="1126" y="253"/>
      <point x="1254" y="128"/>
      <point x="1455" y="128" type="curve" smooth="yes"/>
      <point x="1636" y="128"/>
      <point x="1757" y="221"/>
      <point x="1777" y="235" type="curve"/>
      <point x="1833" y="101" type="line"/>
      <point x="1812" y="85"/>
      <point x="1677" y="-22"/>
      <point x="1436" y="-22" type="curve" smooth="yes"/>
      <point x="1261" y="-22"/>
      <point x="1090" y="67"/>
      <point x="1021" y="208" type="curve"/>
      <point x="956" y="66"/>
      <point x="797" y="-22"/>
    </contour>
  </outline>
</glyph>
<glyph name="uni02C9" format="1">
  <advance width="600"/>
  <unicode hex="02C9"/>
  <outline>
    <contour>
      <point x="307" y="1066" type="move" name="_top"/>
    </contour>
    <contour>
      <point x="-9" y="1316" type="line"/>
      <point x="602" y="1316" type="line"/>
      <point x="602" y="1447" type="line"/>
      <point x="-9" y="1447" type="line"/>
    </contour>
  </outline>
</glyph>
<glyph name="breve" format="1">
  <advance width="615"/>
  <unicode hex="02D8"/>
  <outline>
    <contour>
      <point x="315" y="1026" type="move" name="_top"/>
    </contour>
    <contour>
      <point x="310" y="1180" type="curve" smooth="yes"/>
      <point x="139" y="1180"/>
      <point x="44" y="1259"/>
      <point x="32" y="1440" type="curve"/>
      <point x="163" y="1440" type="line"/>
      <point x="170" y="1341"/>
      <point x="226" y="1312"/>
      <point x="310" y="1312" type="curve" smooth="yes"/>
      <point x="393" y="1312"/>
      <point x="444" y="1345"/>
      <point x="454" y="1440" type="curve"/>
      <point x="583" y="1440" type="line"/>
      <point x="571" y="1261"/>
      <point x="475" y="1180"/>
    </contour>
  </outline>
</glyph>
<glyph name="ogonek" format="1">
  <advance width="508"/>
  <unicode hex="02DB"/>
  <outline>
    <contour>
      <point x="280" y="-424" type="curve" smooth="yes"/>
      <point x="154" y="-424"/>
      <point x="47" y="-366"/>
      <point x="47" y="-250" type="curve" smooth="yes"/>
      <point x="47" y="-135"/>
      <point x="166" y="-37"/>
      <point x="264" y="15" type="curve"/>
      <point x="369" y="10" type="line"/>
      <point x="277" y="-51"/>
      <point x="207" y="-153"/>
      <point x="207" y="-221" type="curve" smooth="yes"/>
      <point x="207" y="-274"/>
      <point x="244" y="-307"/>
      <point x="321" y="-307" type="curve" smooth="yes"/>
      <point x="364" y="-307"/>
      <point x="418" y="-294"/>
      <point x="454" y="-284" type="curve"/>
      <point x="454" y="-396" type="line"/>
      <point x="397" y="-414"/>
      <point x="337" y="-424"/>
    </contour>
  </outline>
</glyph>
<glyph name="uni0307" format="1">
  <advance width="524"/>
  <unicode hex="0307"/>
  <outline>
    <contour>
      <point x="261" y="1026" type="move" name="_top"/>
    </contour>
    <contour>
      <point x="171" y="1268" type="line"/>
      <point x="171" y="1447" type="line"/>
      <point x="353" y="1447" type="line"/>
      <point x="353" y="1268" type="line"/>
    </contour>
  </outline>
</glyph>
<glyph name="uni0311" format="1">
  <advance width="615"/>
  <unicode hex="0311"/>
  <outline>
    <contour>
      <point x="315" y="1026" type="move" name="_top"/>
    </contour>
    <contour>
      <point x="305" y="1440" type="curve" smooth="yes"/>
      <point x="476" y="1440"/>
      <point x="571" y="1361"/>
      <point x="583" y="1180" type="curve"/>
      <point x="452" y="1180" type="line"/>
      <point x="445" y="1279"/>
      <point x="389" y="1308"/>
      <point x="305" y="1308" type="curve" smooth="yes"/>
      <point x="222" y="1308"/>
      <point x="171" y="1275"/>
      <point x="161" y="1180" type="curve"/>
      <point x="32" y="1180" type="line"/>
      <point x="44" y="1359"/>
      <point x="140" y="1440"/>
    </contour>
  </outline>
</glyph>
<glyph name="uni0312" format="1">
  <advance width="600"/>
  <unicode hex="0312"/>
  <outline>
    <contour>
      <point x="291" y="1026" type="move" name="_top"/>
    </contour>
    <contour>
      <point x="501" y="1681" type="line"/>
      <point x="393" y="1192" type="line"/>
      <point x="184" y="1192" type="line"/>
      <point x="351" y="1681" type="line"/>
    </contour>
  </outline>
</glyph>
<glyph name="uni0326" format="1">
  <advance width="540"/>
  <unicode hex="0326"/>
  <outline>
    <contour>
      <point x="111" y="-607" type="line"/>
      <point x="220" y="-134" type="line"/>
      <point x="429" y="-134" type="line"/>
      <point x="261" y="-607" type="line"/>
    </contour>
  </outline>
</glyph>
<glyph name="uni03BC" format="1">
  <advance width="1197"/>
  <unicode hex="03BC"/>
  <outline>
    <contour>
      <point x="866" y="259" type="line"/>
      <point x="825" y="205"/>
      <point x="739" y="113"/>
      <point x="568" y="113" type="curve" smooth="yes"/>
      <point x="398" y="113"/>
      <point x="336" y="221"/>
      <point x="336" y="408" type="curve" smooth="yes"/>
      <point x="336" y="1082" type="line"/>
      <point x="154" y="1082" type="line"/>
      <point x="154" y="-288" type="line"/>
      <point x="336" y="-288" type="line"/>
      <point x="336" y="23.0174" type="line"/>
      <point x="392.285" y="-5.67166"/>
      <point x="461.393" y="-20"/>
      <point x="543" y="-20" type="curve" smooth="yes"/>
      <point x="702" y="-20"/>
      <point x="808" y="44"/>
      <point x="880" y="135" type="curve"/>
      <point x="890" y="0" type="line"/>
      <point x="1047" y="0" type="line"/>
      <point x="1047" y="1082" type="line"/>
      <point x="866" y="1082" type="line"/>
    </contour>
  </outline>
</glyph>
<glyph name="pi" format="1">
  <advance width="1445"/>
  <unicode hex="03C0"/>
  <outline>
    <contour>
      <point x="1143" y="-13" type="curve" smooth="yes"/>
      <point x="1222" y="-13"/>
      <point x="1289" y="11"/>
      <point x="1324" y="45" type="curve"/>
      <point x="1324" y="176" type="line"/>
      <point x="1295" y="166"/>
      <point x="1239" y="142"/>
      <point x="1197" y="142" type="curve" smooth="yes"/>
      <point x="1118" y="142"/>
      <point x="1073" y="233"/>
      <point x="1073" y="434" type="curve" smooth="yes"/>
      <point x="1073" y="549"/>
      <point x="1084" y="718"/>
      <point x="1109" y="906" type="curve"/>
      <point x="1350" y="906" type="line"/>
      <point x="1350" y="1082" type="line"/>
      <point x="441" y="1082" type="line" smooth="yes"/>
      <point x="198" y="1082"/>
      <point x="123" y="992"/>
      <point x="123" y="771" type="curve"/>
      <point x="221" y="771" type="line"/>
      <point x="233" y="849"/>
      <point x="274" y="906"/>
      <point x="355" y="906" type="curve" smooth="yes"/>
      <point x="480" y="906" type="line"/>
      <point x="415" y="398" type="line" smooth="yes"/>
      <point x="387" y="176"/>
      <point x="258" y="115"/>
      <point x="135" y="115" type="curve"/>
      <point x="135" y="4" type="line"/>
      <point x="489" y="4"/>
      <point x="562" y="108"/>
      <point x="572" y="332" type="curve" smooth="yes"/>
      <point x="598" y="906" type="line"/>
      <point x="977" y="906" type="line"/>
      <point x="945" y="675"/>
      <point x="903" y="443"/>
      <point x="903" y="281" type="curve" smooth="yes"/>
      <point x="903" y="97"/>
      <point x="964" y="-13"/>
    </contour>
  </outline>
</glyph>
<glyph name="quotedblbase" format="1">
  <advance width="960"/>
  <unicode hex="201E"/>
  <outline>
    <contour>
      <point x="505" y="-327" type="line"/>
      <point x="587" y="216" type="line"/>
      <point x="785" y="216" type="line"/>
      <point x="657" y="-327" type="line"/>
    </contour>
    <contour>
      <point x="155" y="-327" type="line"/>
      <point x="237" y="216" type="line"/>
      <point x="435" y="216" type="line"/>
      <point x="307" y="-327" type="line"/>
    </contour>
  </outline>
</glyph>
<glyph name="guilsinglleft" format="1">
  <advance width="685"/>
  <unicode hex="2039"/>
  <outline>
    <contour>
      <point x="409" y="168" type="line"/>
      <point x="138" y="541" type="line"/>
      <point x="415" y="916" type="line"/>
      <point x="577" y="916" type="line"/>
      <point x="329" y="541" type="line"/>
      <point x="569" y="168" type="line"/>
    </contour>
  </outline>
</glyph>
<glyph name="guilsinglright" format="1">
  <advance width="685"/>
  <unicode hex="203A"/>
  <outline>
    <contour>
      <point x="133" y="167" type="line"/>
      <point x="380" y="543" type="line"/>
      <point x="141" y="915" type="line"/>
      <point x="300" y="915" type="line"/>
      <point x="571" y="542" type="line"/>
      <point x="295" y="167" type="line"/>
    </contour>
  </outline>
</glyph>
<glyph name="Euro" format="1">
  <advance width="1480"/>
  <unicode hex="20AC"/>
  <outline>
    <contour>
      <point x="916" y="-22" type="curve" smooth="yes"/>
      <point x="1088" y="-22"/>
      <point x="1256" y="25"/>
      <point x="1401" y="131" type="curve"/>
      <point x="1337" y="283" type="line"/>
      <point x="1204" y="183"/>
      <point x="1064" y="139"/>
      <point x="925" y="139" type="curve" smooth="yes"/>
      <point x="679.961" y="139"/>
      <point x="489.787" y="281.001"/>
      <point x="424.483" y="523" type="curve"/>
      <point x="905" y="523" type="line"/>
      <point x="912" y="627" type="line"/>
      <point x="404.964" y="627" type="line"/>
      <point x="401.685" y="656.233"/>
      <point x="400" y="686.584"/>
      <point x="400" y="718" type="curve" smooth="yes"/>
      <point x="400" y="759.265"/>
      <point x="402.987" y="799.373"/>
      <point x="408.804" y="838" type="curve"/>
      <point x="941" y="838" type="line"/>
      <point x="948" y="948" type="line"/>
      <point x="434.231" y="948" type="line"/>
      <point x="504.893" y="1169.97"/>
      <point x="680.8" y="1321"/>
      <point x="923" y="1321" type="curve" smooth="yes"/>
      <point x="1052" y="1321"/>
      <point x="1176" y="1287"/>
      <point x="1291" y="1202" type="curve"/>
      <point x="1367" y="1332" type="line"/>
      <point x="1235" y="1440"/>
      <point x="1081" y="1482"/>
      <point x="909" y="1482" type="curve" smooth="yes"/>
      <point x="577.993" y="1482"/>
      <point x="311.75" y="1277.59"/>
      <point x="227.189" y="948" type="curve"/>
      <point x="34" y="948" type="line"/>
      <point x="29" y="838" type="line"/>
      <point x="206.428" y="838" type="line"/>
      <point x="201.529" y="798.722"/>
      <point x="199" y="758.02"/>
      <point x="199" y="716" type="curve" smooth="yes"/>
      <point x="199" y="685.421"/>
      <point x="200.344" y="655.752"/>
      <point x="202.96" y="627" type="curve"/>
      <point x="35" y="627" type="line"/>
      <point x="30" y="523" type="line"/>
      <point x="218.694" y="523" type="line"/>
      <point x="295.621" y="165.958"/>
      <point x="587.822" y="-22"/>
    </contour>
  </outline>
</glyph>
<glyph name="trademark" format="1">
  <advance width="1869"/>
  <unicode hex="2122"/>
  <outline>
    <contour>
      <point x="321" y="690" type="line"/>
      <point x="321" y="1341" type="line"/>
      <point x="71" y="1341" type="line"/>
      <point x="71" y="1460" type="line"/>
      <point x="708" y="1460" type="line"/>
      <point x="708" y="1341" type="line"/>
      <point x="461" y="1341" type="line"/>
      <point x="461" y="690" type="line"/>
    </contour>
    <contour>
      <point x="828" y="690" type="line"/>
      <point x="828" y="1460" type="line"/>
      <point x="990" y="1460" type="line"/>
      <point x="1249" y="877" type="line"/>
      <point x="1517" y="1460" type="line"/>
      <point x="1671" y="1460" type="line"/>
      <point x="1671" y="690" type="line"/>
      <point x="1547" y="690" type="line"/>
      <point x="1547" y="1264" type="line"/>
      <point x="1290" y="690" type="line"/>
      <point x="1203" y="690" type="line"/>
      <point x="950" y="1259" type="line"/>
      <point x="950" y="690" type="line"/>
    </contour>
  </outline>
</glyph>
<glyph name="emptyset" format="1">
  <advance width="1678"/>
  <unicode hex="2205"/>
  <outline>
    <contour>
      <point x="112" y="733" type="curve" smooth="yes"/>
      <point x="112" y="1150"/>
      <point x="459" y="1473"/>
      <point x="832" y="1473" type="curve" smooth="yes"/>
      <point x="1006" y="1473"/>
      <point x="1174" y="1403"/>
      <point x="1304" y="1286" type="curve"/>
      <point x="1481" y="1485" type="line"/>
      <point x="1518" y="1456" type="line"/>
      <point x="1337" y="1254" type="line"/>
      <point x="1467" y="1122"/>
      <point x="1552" y="939"/>
      <point x="1552" y="733" type="curve" smooth="yes"/>
      <point x="1552" y="316"/>
      <point x="1205" y="-7"/>
      <point x="832" y="-7" type="curve" smooth="yes"/>
      <point x="662" y="-7"/>
      <point x="498" y="60"/>
      <point x="369" y="172" type="curve"/>
      <point x="177" y="-43" type="line"/>
      <point x="145" y="-14" type="line"/>
      <point x="337" y="202" type="line"/>
      <point x="201" y="335"/>
      <point x="112" y="522"/>
    </contour>
    <contour>
      <point x="398" y="204" type="line"/>
      <point x="519" y="99"/>
      <point x="673" y="37"/>
      <point x="832" y="37" type="curve" smooth="yes"/>
      <point x="1183" y="37"/>
      <point x="1509" y="341"/>
      <point x="1509" y="733" type="curve" smooth="yes"/>
      <point x="1509" y="926"/>
      <point x="1430" y="1097"/>
      <point x="1308" y="1222" type="curve"/>
    </contour>
    <contour>
      <point x="366" y="234" type="curve"/>
      <point x="1275" y="1254" type="line"/>
      <point x="1153" y="1364"/>
      <point x="995" y="1429"/>
      <point x="832" y="1429" type="curve" smooth="yes"/>
      <point x="481" y="1429"/>
      <point x="155" y="1125"/>
      <point x="155" y="733" type="curve" smooth="yes"/>
      <point x="155" y="535"/>
      <point x="238" y="359"/>
    </contour>
  </outline>
</glyph>
<glyph name="product" format="1">
  <advance width="1559"/>
  <unicode hex="220F"/>
  <outline>
    <contour>
      <point x="276" y="-89" type="line"/>
      <point x="276" y="1300" type="line"/>
      <point x="111" y="1300" type="line"/>
      <point x="111" y="1456" type="line"/>
      <point x="1427" y="1456" type="line"/>
      <point x="1427" y="1300" type="line"/>
      <point x="1279" y="1300" type="line"/>
      <point x="1279" y="-89" type="line"/>
      <point x="1084" y="-89" type="line"/>
      <point x="1084" y="1300" type="line"/>
      <point x="467" y="1300" type="line"/>
      <point x="467" y="-89" type="line"/>
    </contour>
  </outline>
</glyph>
<glyph name="summation" format="1">
  <advance width="1193"/>
  <unicode hex="2211"/>
  <outline>
    <contour>
      <point x="132" y="-110" type="line"/>
      <point x="132" y="-14" type="line"/>
      <point x="628" y="681" type="line"/>
      <point x="152" y="1358" type="line"/>
      <point x="152" y="1455" type="line"/>
      <point x="1053" y="1455" type="line"/>
      <point x="1053" y="1308" type="line"/>
      <point x="381" y="1308" type="line"/>
      <point x="826" y="688" type="line"/>
      <point x="355" y="40" type="line"/>
      <point x="1095" y="40" type="line"/>
      <point x="1095" y="-110" type="line"/>
    </contour>
  </outline>
</glyph>
<glyph name="radical" format="1">
  <advance width="1314"/>
  <unicode hex="221A"/>
  <outline>
    <contour>
      <point x="671" y="-150" type="line"/>
      <point x="346" y="676" type="line" smooth="yes"/>
      <point x="345" y="676"/>
      <point x="176" y="648"/>
      <point x="176" y="648" type="curve"/>
      <point x="150" y="777" type="line"/>
      <point x="464" y="830" type="line"/>
      <point x="735" y="98" type="line"/>
      <point x="1132" y="1585" type="line"/>
      <point x="1286" y="1585" type="line"/>
      <point x="823" y="-150" type="line"/>
    </contour>
  </outline>
</glyph>
<glyph name="integral" format="1">
  <advance width="749"/>
  <unicode hex="222B"/>
  <outline>
    <contour>
      <point x="181" y="-305" type="curve" smooth="yes"/>
      <point x="91" y="-305"/>
      <point x="36" y="-283"/>
      <point x="36" y="-283" type="curve"/>
      <point x="36" y="-139" type="line"/>
      <point x="36" y="-139"/>
      <point x="115" y="-154"/>
      <point x="169" y="-154" type="curve" smooth="yes"/>
      <point x="293" y="-154"/>
      <point x="316" y="-83"/>
      <point x="316" y="50" type="curve" smooth="yes"/>
      <point x="316" y="1189" type="line" smooth="yes"/>
      <point x="316" y="1406"/>
      <point x="373" y="1567"/>
      <point x="600" y="1567" type="curve" smooth="yes"/>
      <point x="688" y="1567"/>
      <point x="740" y="1545"/>
      <point x="740" y="1545" type="curve"/>
      <point x="740" y="1399" type="line"/>
      <point x="740" y="1399"/>
      <point x="687" y="1416"/>
      <point x="630" y="1416" type="curve" smooth="yes"/>
      <point x="506" y="1416"/>
      <point x="485" y="1345"/>
      <point x="485" y="1212" type="curve" smooth="yes"/>
      <point x="485" y="73" type="line" smooth="yes"/>
      <point x="485" y="-145"/>
      <point x="409" y="-305"/>
    </contour>
  </outline>
</glyph>
<glyph name="approxequal" format="1">
  <advance width="1351"/>
  <unicode hex="2248"/>
  <outline>
    <contour>
      <point x="310" y="252" type="curve"/>
      <point x="175" y="288" type="line"/>
      <point x="216" y="453"/>
      <point x="325" y="555"/>
      <point x="481" y="555" type="curve" smooth="yes"/>
      <point x="573" y="555"/>
      <point x="660" y="512"/>
      <point x="739" y="469" type="curve" smooth="yes"/>
      <point x="812" y="433"/>
      <point x="875" y="392"/>
      <point x="925" y="392" type="curve" smooth="yes"/>
      <point x="1002" y="392"/>
      <point x="1049" y="453"/>
      <point x="1087" y="558" type="curve"/>
      <point x="1218" y="525" type="line"/>
      <point x="1181" y="365"/>
      <point x="1088" y="257"/>
      <point x="920" y="257" type="curve" smooth="yes"/>
      <point x="839" y="257"/>
      <point x="759" y="291"/>
      <point x="652" y="354" type="curve" smooth="yes"/>
      <point x="589" y="390"/>
      <point x="530" y="418"/>
      <point x="479" y="418" type="curve" smooth="yes"/>
      <point x="391" y="418"/>
      <point x="338" y="353"/>
    </contour>
    <contour>
      <point x="310" y="660" type="curve"/>
      <point x="173" y="691" type="line"/>
      <point x="210" y="856"/>
      <point x="320" y="959"/>
      <point x="479" y="959" type="curve" smooth="yes"/>
      <point x="566" y="959"/>
      <point x="640" y="926"/>
      <point x="731" y="872" type="curve" smooth="yes"/>
      <point x="815" y="823"/>
      <point x="877" y="797"/>
      <point x="924" y="797" type="curve" smooth="yes"/>
      <point x="1000" y="797"/>
      <point x="1049" y="856"/>
      <point x="1086" y="963" type="curve"/>
      <point x="1216" y="930" type="line"/>
      <point x="1181" y="768"/>
      <point x="1085" y="663"/>
      <point x="918" y="663" type="curve" smooth="yes"/>
      <point x="832" y="663"/>
      <point x="756" y="694"/>
      <point x="648" y="758" type="curve" smooth="yes"/>
      <point x="584" y="796"/>
      <point x="528" y="825"/>
      <point x="476" y="825" type="curve" smooth="yes"/>
      <point x="390" y="825"/>
      <point x="339" y="759"/>
    </contour>
  </outline>
</glyph>
<glyph name="lessequal" format="1">
  <advance width="1350"/>
  <unicode hex="2264"/>
  <outline>
    <contour>
      <point x="168" y="0" type="line"/>
      <point x="168" y="130" type="line"/>
      <point x="1143" y="130" type="line"/>
      <point x="1143" y="0" type="line"/>
    </contour>
    <contour>
      <point x="1122" y="215" type="line"/>
      <point x="189" y="680" type="line"/>
      <point x="189" y="776" type="line"/>
      <point x="1127" y="1220" type="line"/>
      <point x="1127" y="1047" type="line"/>
      <point x="421" y="726" type="line"/>
      <point x="1122" y="384" type="line"/>
    </contour>
  </outline>
</glyph>
<glyph name="greaterequal" format="1">
  <advance width="1350"/>
  <unicode hex="2265"/>
  <outline>
    <contour>
      <point x="188" y="0" type="line"/>
      <point x="188" y="130" type="line"/>
      <point x="1163" y="130" type="line"/>
      <point x="1163" y="0" type="line"/>
    </contour>
    <contour>
      <point x="199" y="214" type="line"/>
      <point x="199" y="387" type="line"/>
      <point x="903" y="708" type="line"/>
      <point x="203" y="1049" type="line"/>
      <point x="203" y="1220" type="line"/>
      <point x="1135" y="753" type="line"/>
      <point x="1135" y="657" type="line"/>
    </contour>
  </outline>
</glyph>
<glyph name="lozenge" format="1">
  <advance width="1248"/>
  <unicode hex="25CA"/>
  <outline>
    <contour>
      <point x="610" y="132" type="line"/>
      <point x="954" y="710" type="line"/>
      <point x="619" y="1282" type="line"/>
      <point x="274" y="710" type="line"/>
    </contour>
    <contour>
      <point x="550" y="-42" type="line"/>
      <point x="102" y="710" type="line"/>
      <point x="557" y="1463" type="line"/>
      <point x="677" y="1463" type="line"/>
      <point x="1128" y="711" type="line"/>
      <point x="669" y="-42" type="line"/>
    </contour>
  </outline>
</glyph>
<glyph name="caron.alt" format="1">
  <advance width="600"/>
  <outline>
    <contour>
      <point x="48" y="1026" type="move" name="_caron.alt"/>
    </contour>
    <contour>
      <point x="325" y="994" type="line"/>
      <point x="434" y="1468" type="line"/>
      <point x="643" y="1468" type="line"/>
      <point x="475" y="994" type="line"/>
    </contour>
  </outline>
</glyph>
